<svg xmlns="http://www.w3.org/2000/svg" width="200" height="192" viewBox="0 0 150 144"><defs><clipPath id="a"><path d="M.629.512H149.62v142.246H.63zm0 0"/></clipPath></defs><g clip-path="url(#a)"><path d="M74.371 78.523c10.207 0 19.535 4.133 26.09 10.895l1.008-1.004c-6.93-7.012-16.512-11.394-27.227-11.394S54.074 81.402 47.27 88.414l1.007 1.004c6.68-6.762 15.883-10.895 26.094-10.895m0 15.403c6.3 0 11.848 2.754 15.754 7.136l1.137-1.003c-4.16-4.633-10.086-7.637-16.89-7.637-6.81 0-12.735 2.879-16.892 7.637l1.133 1.004c3.907-4.383 9.453-7.137 15.758-7.137m20.543-6.512c-.375-.375-.754-.25-1.008 0l-8.32 5.383 1.766 1.004 5.925-3.883-.882 3.254-.758-.625L90 93.55l1.89 1.375-.503 1.879 1.511 1.379 2.774-9.391c.125-.379.125-.629-.254-1.004zm-36.3 6.512c.503-.375.882-1.004.882-1.504.125-.625-.125-1.125-.758-1.879l-3.277-4.004 1.512-1.129 3.656 4.383c.758.875 1.008 1.879 1.008 2.879-.125 1.129-.63 2.004-1.637 2.883-1.008.75-2.016 1.125-3.152 1-1.008-.125-1.891-.625-2.645-1.504l-3.656-4.383 1.512-1.125 3.277 4.008c.629.75 1.008 1.125 1.766 1.125.378-.125 1.007-.375 1.511-.75m7.942-10.395l.379 2.13 4.285-.876.379 1.754-4.29.875.13.75c.25 1.004.628 1.129 1.511 1.004l3.403-.754.378 1.754-3.53.75c-1.638.379-3.15-.125-3.528-2.125l-1.262-6.012c-.125-.5.13-.75.504-.879l5.8-1.125.38 1.754zm12.605 7.262l-1.137-.25c-.375-.125-.628-.375-.503-.875l1.511-5.887c.508-2.004 2.02-2.379 3.656-2.004l3.532.88-.38 1.753-3.401-.879c-.883-.25-1.262-.125-1.516.88l-.25.874 4.285 1.125-.504 1.754-4.285-1.125zm35.547 49.71h.504c.25 0 .629 0 .629-.374 0-.25-.254-.375-.504-.375h-.504v.75zm0 .255v1h-.379v-2.38h.883c.629 0 .879.25.879.626a.586.586 0 0 1-.63.625l.63 1.129h-.375l-.633-1zm-1.387-.13c0 1.005.754 1.755 1.762 1.755s1.766-.75 1.766-1.754c0-1-.758-1.75-1.766-1.75s-1.762.75-1.762 1.75m1.762 2.129c-1.133 0-2.14-.875-2.14-2.13 0-1.25 1.007-2.124 2.14-2.124 1.137 0 2.145.875 2.145 2.125 0 1.254-1.008 2.129-2.145 2.129m-11.469-15.149v9.141c0 .5-.254.75-.758.75v.5h9.329c0-1 0-1.879.254-3.379h-.633c-.25 1.5-.63 1.754-1.512 1.754h-4.031v-3.758h2.394c.754 0 .88.25 1.008.875h.504c0-.375-.125-1.25-.125-1.625 0-.504 0-1.254.125-1.629h-.504c-.129.625-.254.875-1.008.875h-2.394v-3.379h3.781c1.008 0 1.258.375 1.387 1.25h.504c-.13-1-.13-1.75-.13-2.754h-8.949v.5c.504.25.758.504.758.88m-14.246 0v6.511c0 3.004 1.64 4.004 4.918 4.004 3.153 0 4.914-1 4.914-4.258v-6.258c0-.504.254-.754.758-.754v-.5c-.629 0-1.262.125-2.016.125-.882 0-1.64 0-2.394-.125v.5c.754 0 1.008.125 1.008.88v6.511c0 2.004-.883 2.379-2.27 2.379s-2.27-.375-2.27-2.379v-6.512c0-.629.255-.879 1.008-.879v-.5c-.753 0-1.386.125-2.394.125-.754 0-1.512 0-2.016-.125v.5c.504 0 .754.25.754.754m-7.058 6.258v1.254c0 .75-.63 1.379-1.891 1.379-2.016 0-3.277-2.504-3.277-4.633 0-2.254 1.261-4.133 3.656-4.133 1.512 0 2.898.75 3.152 2.38h.504c-.125-1.255-.125-2.255-.125-3.009-1.008-.625-2.27-.875-3.531-.875-3.781 0-6.426 2.254-6.426 6.137 0 3.13 2.14 5.883 5.418 5.883 1.262 0 2.395-.375 3.531-1.375l.375 1.125h1.012v-3.879c0-.754.375-1.004.879-1.004v-.5c-.754 0-1.512.125-2.395.125-.754 0-1.511 0-2.14-.125v.625c1.008-.125 1.258-.125 1.258.625m-14.243-.875h-2.52c.505-1.25 1.009-2.629 1.388-4.008l1.132 4.008m-6.804 4.508v.5c.629 0 1.258-.125 1.89-.125.63 0 1.258 0 1.762.125v-.5c-.629 0-.883-.25-.883-.5 0-.125 0-.375.13-.625l.753-2.004h3.406l.504 1.75c.125.254.125.629.125.879 0 .375-.254.5-.883.625v.5c.758 0 1.512-.125 2.27-.125s1.512 0 2.27.125v-.5c-.504-.125-.758-.375-1.008-1.125l-3.278-10.02c-.504 0-1.136.125-1.64.125s-1.133 0-1.637-.125v.5c.504 0 .629.254.629.504 0 .125-.125.375-.254.625l-3.402 8.641c0 .375-.25.625-.754.75m-10.844-9.89v9.14c0 .5-.25.75-.754.75v.5h9.328c0-1 0-1.879.25-3.379h-.629c-.254 1.5-.629 1.754-1.511 1.754h-4.036v-3.633h2.395c.758 0 .883.25 1.008.875h.504c0-.375-.125-1.25-.125-1.625 0-.504 0-1.254.125-1.629h-.504c-.125.625-.25.875-1.008.875h-2.395v-3.379h3.782c1.007 0 1.261.375 1.386 1.25h.504c-.125-1-.125-1.75-.125-2.754h-8.949v.5c.629.125.754.38.754.754m-11.215 0v9.141c0 .5-.254.75-.758.75v.5h8.825c0-1.125.25-2.254.378-3.379h-.632c-.25 1.375-.754 1.879-1.891 1.879h-3.277v-8.64c0-.5.125-.88 1.007-1.005v-.5c-.503 0-1.636.125-2.27.125-.628 0-1.382 0-2.14-.125v.5c.504 0 .758.25.758.754m-24.707-9.015l.25-2.883c-1.387 1.129-3.402 1.879-4.789 1.879-3.277 0-5.672-3.254-5.672-6.133 0-3.758 2.27-6.012 5.043-6.012 2.14 0 3.656 1.125 4.031 3.254h.633c-.125-1.625-.254-3.254-.254-5.008-.629-.25-2.015-.625-4.16-.625-5.922 0-8.95 4.258-8.95 8.641 0 4.258 3.028 8.512 8.575 8.512 1.387 0 3.652-.5 5.293-1.625m40.336-10.52l-.504 9.516c0 1.004-.379 1.129-1.262 1.254v.625c.758-.125 1.512-.125 2.395-.125s1.766.125 2.648.125v-.625c-1.386-.125-1.511-.375-1.511-1.504 0-.625 0-1.25.125-2.38l.125-6.636 4.414 11.27h1.89l3.782-11.145.504 6.762c.124.754.124 1.754.124 2.379 0 1.004-.253 1.254-1.386 1.379v.625c.883-.125 1.89-.125 2.898-.125 1.008 0 2.02.125 3.028.125v-.625c-.504-.125-1.137-.125-1.137-.75l-.754-9.77c-.129-.75-.129-1.754-.129-2.379s.129-.875.883-.875v-.754c-.754.125-1.637.125-2.395.125-.754 0-1.636-.125-2.394-.125l-3.528 10.52-3.91-10.52c-.883.125-1.636.125-2.52.125-.882 0-1.64-.125-2.394-.125v.63c.883.124 1.008.25 1.008.874.125.875 0 1.504 0 2.13m-19.539 11.269v-.625c.633-.125 1.008-.5 1.137-1.004l4.535-11.27c.129-.375.254-.625.254-.875s-.254-.625-.883-.625v-.504c.758.125 1.387.125 2.144.125.754 0 1.383-.125 2.141-.125l4.16 12.899c.38 1.004.63 1.254 1.387 1.504v.625c-1.008-.125-1.89-.125-2.898-.125-1.008 0-2.02.125-2.899.125v-.625c.879-.125 1.133-.375 1.133-.88a2.88 2.88 0 0 0-.254-1.124l-.754-2.254h-4.414l-1.008 2.629c-.125.375-.125.625-.125.75 0 .379.38.629 1.133.754v.625c-.754-.125-1.637-.125-2.395-.125-.882 0-1.636.125-2.394.125m5.422-6.512h3.277c-.504-1.504-.883-2.879-1.387-5.258-.503 1.88-1.261 3.754-1.89 5.258m-21.809-6.887v11.895c0 .629-.25.879-1.008 1.004v.625c1.008-.125 1.891-.125 2.774-.125s1.765.125 2.773.125v-.625c-.758 0-1.008-.375-1.008-1.004v-5.258h5.547v5.258c0 .629-.254.879-1.011 1.004v.625c1.011-.125 1.894-.125 2.773-.125.883 0 1.766.125 2.774.125v-.625c-.754 0-1.008-.375-1.008-1.004v-11.895c0-.625.254-.875 1.008-1v-.504c-1.008.125-1.891.125-2.774.125-.879 0-1.762-.125-2.773-.125v.63c.757 0 1.011.374 1.011 1v4.507h-5.547v-4.508c0-.625.25-.875 1.008-1v-.629c-1.008.125-1.89.125-2.773.125-.883 0-1.766-.125-2.774-.125v.63c.758 0 1.008.25 1.008.874m118.992 8.266h-.628c.125 1.375.125 3.004.125 4.758 1.636.5 3.402.875 5.167.875 3.782 0 6.934-1.625 6.934-4.758 0-3.004-2.27-3.883-4.539-4.633l-2.52-.75c-1.011-.25-2.144-.629-2.144-2.004 0-1.629 2.016-2.004 3.152-2.004 2.14 0 3.907 1 4.41 3.13h.633c-.129-1.25-.129-2.63-.129-4.384a13.129 13.129 0 0 0-4.41-.75c-3.531 0-7.058 1.13-7.058 4.758 0 2.754 2.394 3.758 4.789 4.508l1.64.5c1.133.379 2.52.754 2.52 2.129 0 1.754-2.016 2.129-3.403 2.129-2.394.25-4.035-1-4.539-3.504m-17.773-8.266v11.895c0 .629-.25.879-1.008 1.004v.625c.758-.125 1.512-.125 2.27-.125.754 0 1.386.125 2.14.125v-.625c-.629 0-1.386-.125-1.386-1.254v-9.89l7.562 11.769h2.399v-13.524c0-.625.25-.875 1.007-1v-.504c-.757.125-1.511.125-2.27.125-.757 0-1.386-.125-2.144-.125v.63c.633 0 1.387.124 1.387 1.25v8.265l-6.3-10.145c-.759.125-1.387.125-2.016.125-.883 0-1.766-.125-2.774-.125v.63c.883 0 1.133.25 1.133.874m-27.605 0v11.895c0 .629-.25.879-1.008 1.004v.625c1.008-.125 1.89-.125 2.773-.125.883 0 1.766.125 2.774.125v-.625c-.758 0-1.008-.375-1.008-1.004v-11.895c0-.625.25-.875 1.008-1v-.504c-1.008.125-1.891.125-2.774.125s-1.765-.125-2.773-.125v.63c.758 0 1.008.25 1.008.874m-12.477 11.52v-10.77l1.387-.125c2.015 0 3.277.754 3.277 2.758 0 1.875-.883 3.254-3.277 3.254-.254 0-.633-.125-.758-.125-.254 0-.379 0-.379.25 0 .5 1.64 1.004 2.773 1.004 2.899 0 5.043-1.754 5.043-4.508 0-2.633-1.511-4.637-5.8-4.637h-6.805v.63c.758 0 1.008.374 1.008 1v11.144c0 1.129-.125 1.504-1.008 1.629v.625c1.008-.125 1.89-.125 2.773-.125.883 0 1.766.125 3.153.125v-.625c-1.262-.375-1.387-.625-1.387-1.504m27.602-11.02c3.406 0 4.414 3.883 4.414 6.512 0 2.504-1.387 4.508-3.657 4.508-3.277 0-4.41-3.883-4.41-6.512 0-1.879.883-4.508 3.653-4.508m.253 13.149c4.16 0 7.563-2.88 7.563-7.637 0-4.008-2.773-7.766-7.438-7.766-4.16 0-7.437 3.133-7.437 7.391 0 4.254 2.773 8.012 7.312 8.012M90.25 62.246c.758-3.258.129-6.262.129-6.262-2.145 3.004-4.16 5.258-6.05 7.012-5.169.25-9.079-.375-9.079-.375s2.27 2.254 4.918 3.633c-3.531 2.125-5.797 2.379-5.797 2.379 15.25.375 24.324-9.52 24.324-9.52-2.52 1.38-5.543 2.504-8.445 3.133m-15 .25s-3.148-1.254-7.563-3.758c.13-2.629.633-6.008 1.387-10.265 0 0-3.527 3.504-8.066 6.132a111.236 111.236 0 0 1-8.192-6.382s1.258 4.004 3.907 8.511c-2.395.88-4.918 1.254-7.184.754 0 0 2.645 3.38 10.965 4.758 2.27 2.754 5.043 4.883 8.32 5.758 0 0-1.008-1.125-1.261-5.133 2.394 0 4.914-.125 7.687-.375m-18.277-30.05c-3.653.124-6.555.374-8.82.874-.633-3.883-.758-6.761-.758-6.761-1.766 2.753-3.024 5.382-3.782 7.886-2.52 1.004-3.277 1.88-3.277 1.88.379 1.378 1.262 2.628 2.27 3.882-.38 5.887 1.636 9.766 1.636 9.766.38-2.004 1.262-4.133 2.395-6.008 3.152 2.504 6.304 4.129 6.304 4.129-1.511-2.63-2.523-5.508-3.402-8.387 3.527-4.258 7.434-7.262 7.434-7.262m-8.57-14.152c1.765-1.625 3.906-3.504 6.554-5.383 0 0-2.395 0-4.914.625 1.637-4.008 3.527-6.262 3.527-6.262s-10.715 7.516-12.73 21.04c0 0 .883-2.38 3.906-6.137 1.262 2.629 2.649 4.383 2.649 4.383 0-3.13.378-5.887 1.007-8.266M83.824 7.148c-2.773-1.375-5.547-2.378-8.07-3.128 3.152-2.63 6.18-3.383 6.18-3.383-5.043-.125-9.457.754-13.239 2.254-5.543-.5-9.074.504-9.074.504.883.625 1.512 1.75 2.27 3.003-4.664 3.13-7.059 6.512-7.059 6.512 2.773-1.379 5.797-2.379 8.695-3.258.38.63.633 1.13 1.012 1.754 1.89 3.008 4.031 5.133 4.031 5.133.758-3.629 2.016-6.383 3.532-8.637 6.804-.879 11.722-.754 11.722-.754m23.57 15.778c-1.765-3.88-4.285-6.887-6.933-9.016-2.395-4.883-5.043-7.137-5.043-7.137.254 1.13 0 2.38-.375 3.758-5.926-3.008-11.219-3.383-11.219-3.383 3.403 2.254 6.426 4.883 8.95 7.766-2.395 3.879-5.547 7.137-5.547 7.137 4.16-.875 7.437-1.38 10.082-1.38 4.035 5.638 6.304 10.27 6.304 10.27.125-3.757-.254-7.136-.883-9.894 3.532.504 4.665 1.879 4.665 1.879m1.765 14.027c-1.008 1.625-2.523 2.754-4.414 3.504-.25-5.008-1.008-9.516-1.008-9.516-1.511 4.133-3.152 7.887-4.789 11.02-5.422.75-10.84-.125-10.84-.125 2.899 3.504 5.293 5.633 7.059 7.012-2.773 4.632-4.79 7.136-4.79 7.136 3.907-.875 6.93-2.379 9.454-4.132 1.008.625 1.89 1.503 2.773 2.753 0 0 1.637-2.253 2.141-7.386 3.781-5.133 4.414-10.266 4.414-10.266m-34.035 1.875c-2.016 3.133-4.16 6.387-5.926 9.77 0 0-1.511-5.012-2.015-12.149-3.403-1.125-6.805-2.379-10.211-3.879 0 0 3.91-2.004 10.086-4.258.125-3.757.757-7.64 1.765-11.644 0 0 2.016 3.754 5.672 9.016 3.906-1.254 8.192-2.508 12.856-3.508 0 0-3.403 4.258-7.688 10.27 2.52 3.128 5.293 6.382 8.57 9.515-.125-.125-5.671-1.129-13.109-3.133" fill="#0e2050"/></g></svg>