<svg xmlns="http://www.w3.org/2000/svg" width="200" height="200" viewBox="0 0 150 150"><path d="M1.121 119.367h147.887V1.07H1.12zm0 0" fill="#d10214"/><path d="M132.559 43.09c-4.54 0-8.23 3.687-8.23 8.21.007 4.544 3.687 8.227 8.23 8.231 4.527 0 8.214-3.687 8.214-8.23 0-4.524-3.687-8.211-8.214-8.211m-9.543 20.265c.086.29-.188.48-.72.887l-.323.172.12.219c.067.12-.054.34-.277.445l-.496.258c-.218.098-.457.086-.527-.055l-.102-.207-.613.309.102.207c.066.137-.07.34-.293.445l-.496.238c-.239.102-.48.07-.543-.066l-.082-.207-6.204 2.852.122.289c.07.12-.067.324-.29.445l-.496.219c-.218.101-.46.07-.53-.067l-.122-.273-.719.34.137.273c.066.152-.066.36-.289.461l-.496.219c-.223.101-.461.086-.531-.067l-.121-.277c-1.008.41-2.082.566-2.868-.902-.34-.68-.359-2.254-.613-3.09-.137-.445-.648-.512-.648-.512-9.63-1.844-12.891.207-19.07-1.312-1.93-.48-2.989-2.274-5.383-2.29L68.23 62l-.273 1.008-19.875-.102 3.02 1.5.992 8.762-1.043.273.48 6.235.172 5.187c-.02.395-.02 1.332-.566 2.356-.36.68-.989 1.246-1.5 1.62-.168.138-.938.65-1.828 1.18l-2.493 1.348c.055.242.223.48.278.668-12.09 5.84-27.067 7.84-31.914 17.125-.567 1.074-2.547.512-2.598-.648-.02-.532-.02-1.399.02-1.86l-.188-.02c-.152 0-.273-.222-.258-.46l.024-.547c.02-.254.152-.441.304-.441l.207.02c.07-.548.172-1.079.309-1.59l-.188-.067c-.136-.055-.187-.29-.101-.531l.172-.512c.097-.238.273-.375.426-.324l.187.05c.856-2.011 2.531-2.898 3.297-4.796l-.117-.055c-.156-.05-.207-.29-.121-.527l.168-.512c.101-.223.293-.38.43-.324l.136.03c.117-.273.254-.597.41-.866l-.172-.121c-.136-.086-.136-.325 0-.532l.29-.46c.136-.204.363-.305.48-.22l.07.036.086.02c.031 0 .05-.02.086-.036.086-.086.168-.168.254-.238.785-.613 1.762-.512 2.562-.035.75.46 3.72 2.152 6.575-.43 4.71-4.219 10.226-9.969 14.379-10.156-1.125-2.442-3.075-7.516-3.297-9.395l-1.399-.289c-.722-1.554-2.492-8.761-2.988-14.172 0 0-.602-5.84-.02-7.886-.324-.036-.906.441-1.078.441-.75-1.86 1.707-17.586 4.153-22.164l3.738-1.484c-.39-.051-3.09-.172-10.195-.754L18.84 36.688c-.39.289-1.059 2.527-1.059 2.527s-1.18 1.039-2.254 1.793c-1.453 1.023-4.968 1.789-5.722.597-.188-.289-.153-.425.02-.597.546-.567 2.597-1.555 3.296-2.856-1.11.567-2.375 1.16-3.363 1.063-.43-.02-.633-1.078-.086-1.266 1.484-.633 2.68-.902 3.55-2.152.856-1.18 1.883-2 3.247-2.012 0 0 6.605-8.625 10.5-12.722 1.074-1.125 3.074-.75 3.074-.75l.34-1.317s13.351-1.586 19.566.48c-.148-3.792 1.559-8.796 7.45-8.796 3.042 0 7.515 2.68 8.113 5.941.187 1.008-.395 1.672-.703 2.934-.528 1.93.207 4.047-.02 4.715-.168.562-.8.511-1.332 1.261-.598.801-1.23 2.309-1.23 2.309l-.797 1.808-4.168-.308c-1.52 3.281-4.645 9.988-5.739 16.613 3.278.29 18.079 2.426 18.079 2.426l.359 1.21s6.25.755 11.355 3.177c1.145.273 4.012-.153 5.891.718.137-.086.445-.39.566-.476 6.66 2.047 12.16 5.531 18.594 7.086l4.012.937c2.375.461 3.894.567 5.14.668 2.067.153 3.208.117 4.711.203 1.06.07 2.356-.097 2.786 1.453" fill="#fff"/><path d="M141.3 135.54l-2.3 7.187h4.574zm3.075 10.062h-6.234l-1.11 3.328h-3.96l5.687-15.895h5.07l5.652 15.895h-3.996zm-12.96-5.86v8.64c-1.485.513-3.45.837-5.5.837-5.532 0-8.13-2.457-8.13-8.246 0-5.754 2.598-8.23 8.13-8.23 1.964 0 3.823.308 5.237.886v3.074c-1.55-.527-3.277-.836-4.933-.836-3.328 0-4.371 1.348-4.371 5.106 0 3.93 1.093 5.226 4.234 5.226.719 0 1.422-.054 2.082-.137v-3.55h-2.945v-2.774zm-20.423-6.707h3.98v15.895h-3.98zm-13.265 0h3.96v12.871h6.829v3.024H97.723zM83.21 148.313v-3.094c1.71.574 3.508.863 5.312.855 1.825 0 2.63-.48 2.63-1.707 0-1.078-.34-1.387-1.81-1.691l-2.648-.547c-2.75-.563-3.672-1.688-3.672-4.406 0-3.485 2.051-4.985 6.18-4.985 1.883 0 3.637.309 5.074.856v3.105a14.42 14.42 0 0 0-4.832-.836c-1.965 0-2.632.512-2.632 1.762 0 1.023.46 1.313 1.742 1.586l2.558.547c3.008.648 3.825 1.656 3.825 4.488 0 3.414-2.098 4.969-6.387 4.969-1.88 0-3.688-.309-5.344-.903m-13.64-15.28h11.136v3.038h-7.172v3.348h5.957v2.988h-5.957v3.5h7.324v3.02H69.57zm-10.04 12.874c2.32 0 3.09-1.21 3.09-4.933 0-3.688-.765-4.903-3.09-4.903h-3.004v9.836zm-6.984-12.875h7.105c5.567 0 7.02 2.29 7.02 7.942 0 5.5-1.59 7.957-7.02 7.957h-7.105zm-3.258 0v15.899h-4.832l-6.762-11.493v11.493h-3.687V133.03h4.832l6.766 11.508v-11.508zm-32.441 10.723V133.03h3.96v10.606c0 1.758.801 2.422 2.954 2.422 2.133 0 2.937-.664 2.937-2.422V133.03h3.98v10.723c0 3.738-2.167 5.46-6.917 5.46-4.746 0-6.914-1.722-6.914-5.46m-6.457.457c0-1.469-.598-2.082-1.93-2.082H4.891v4.113h3.57c1.418 0 1.93-.597 1.93-2.031m-5.5-4.54h3.308c1.332 0 1.93-.6 1.93-1.944 0-1.434-.563-2-1.93-2H4.891zm9.355 4.923c0 2.832-1.312 4.34-4.898 4.34H1.12v-15.899H9.04c3.707 0 4.988 1.469 4.988 4.153 0 2.066-.77 2.988-2.972 3.53l-.41.122.359.066c2.476.547 3.242 1.469 3.242 3.692" fill="#191917"/></svg>