<svg xmlns="http://www.w3.org/2000/svg" width="200" height="116" viewBox="0 0 150 87"><g fill="#002e62"><path d="M80.004 35.781l4.285 4.266c-.68.394-1.363.816-2.07 1.18a16.347 16.347 0 0 1-6.41 1.656c-4.766.195-8.88-1.348-12.282-4.66a15.07 15.07 0 0 1-4.453-8.395c-.82-4.742.34-8.98 3.406-12.687a15.412 15.412 0 0 1 9.528-5.528c4.851-.87 9.273.196 13.133 3.227a15.266 15.266 0 0 1 5.726 9.348c.313 1.71.371 3.453.113 5.195-.027.082-.027.137-.054.222H74.277a.83.83 0 0 1-.738-.308 355.826 355.826 0 0 0-4.566-4.52c-.055-.054-.114-.113-.2-.222h15.77c0-.086-.027-.2-.027-.282-1.278-3.847-3.829-6.316-7.887-7.074-5.02-.898-9.953 2.328-11.2 7.297-.91 3.68-.058 6.934 2.551 9.684a9.355 9.355 0 0 0 5.672 2.89 9.648 9.648 0 0 0 6.239-1.207c.03-.027.086-.054.113-.082zm0 0"/><path d="M91.719 39.965c.312-.422.652-.899.965-1.38a20.698 20.698 0 0 0 3.175-8.25c.286-1.796.34-3.62.141-5.417a20.777 20.777 0 0 0-6.805-13.445A20.63 20.63 0 0 0 78.758 6.28 20.303 20.303 0 0 0 73.37 6c-4.172.309-8.113 1.879-11.375 4.46-.027 0-.027.028-.027 0l-4.395-4.292c.453-.336.88-.703 1.36-1.012A27.693 27.693 0 0 1 69.938.523a26.683 26.683 0 0 1 6.835-.39C83.977.664 90.13 3.5 95.093 8.695a26.449 26.449 0 0 1 6.837 12.883c.507 2.3.68 4.66.539 7.016a26.764 26.764 0 0 1-5.73 15.101c-.2.254-.4.508-.594.73zm0 0M53.828 9.871l4.426 4.379a.554.554 0 0 1-.113.168 20.697 20.697 0 0 0-3.942 9.207 20.219 20.219 0 0 0-.172 5.559c.368 4.07 1.957 7.945 4.54 11.144 3.09 3.902 7.484 6.598 12.39 7.524 1.617.336 3.262.449 4.906.39a20.87 20.87 0 0 0 11.801-4.238l.313-.25 4.367 4.32c-9.133 7.719-25.61 9.266-36.899-1.965C44.27 34.996 45.832 18.91 53.828 9.871zm0 0M62.848 70.926v-.45-8.085c0-.309.086-.395.398-.364 1.36.028 2.723 0 4.082 0h.313v24.45h-4.793v-.93c-.172.086-.313.14-.426.226-2.922 1.602-6.777 1.43-9.473-.785a8.393 8.393 0 0 1-3.062-5.531A8.497 8.497 0 0 1 51.477 73a7.806 7.806 0 0 1 5.527-3.281 8.62 8.62 0 0 1 5.59 1.094c.082.027.168.082.254.113zm0 7.297a13.95 13.95 0 0 1 .027-1.852c.086-.73-.254-1.207-.793-1.629-.059-.027-.113-.086-.172-.14-1.644-1.262-4.508-1.403-6.125.421a4.711 4.711 0 0 0-1.191 3.48c.027 1.458.765 2.778 1.984 3.595 1.817 1.207 4.54.812 5.957-.844.227-.223.34-.535.313-.844-.028-.7 0-1.457 0-2.187zm0 0M149.86 79.96h-12.11a3.619 3.619 0 0 0 1.473 2.165 4.679 4.679 0 0 0 4.34.504c.398-.14.707-.504 1.078-.785.086-.086.199-.14.312-.14h4.649c.058 0 .113.026.144.026a6.295 6.295 0 0 1-2.016 3.09 8.5 8.5 0 0 1-4.652 1.934c-2.125.226-4.195-.027-6.066-1.094-2.328-1.347-3.633-3.367-4.028-5.976a8.778 8.778 0 0 1 .907-5.672c1.191-2.274 3.12-3.621 5.644-4.153 2.125-.449 4.227-.312 6.184.672 2.27 1.153 3.57 3.031 4.082 5.473.199 1.18.258 2.387.14 3.594-.027.14-.054.254-.082.363zm-4.653-3.308c-.086-.843-.453-1.656-1.105-2.246-1.278-1.18-3.973-1.125-5.305.168a4.144 4.144 0 0 0-1.133 2.078zm0 0M17.016 79.96H4.906v.228c.453 1.46 1.758 2.496 3.29 2.695.71.113 1.449.082 2.156-.113.566-.141 1.05-.45 1.39-.899a.598.598 0 0 1 .281-.168H16.875a6.116 6.116 0 0 1-1.219 2.328c-1.39 1.63-3.207 2.473-5.304 2.723-1.704.254-3.461.058-5.079-.559-2.89-1.18-4.593-3.34-5.132-6.402a8.873 8.873 0 0 1 1.05-6.117c1.305-2.219 3.317-3.453 5.813-3.875 1.93-.336 3.8-.196 5.59.644 2.437 1.18 3.828 3.145 4.308 5.758.285 1.234.2 2.469.114 3.758zm-4.68-3.308c-.2-1.18-.68-2.105-1.73-2.695a3.894 3.894 0 0 0-2.184-.394c-1.16 0-2.238.562-2.918 1.46a3.49 3.49 0 0 0-.711 1.63zm0 0M47.79 79.96H35.534c.227.93.797 1.743 1.59 2.247 1.219.79 2.75.957 4.14.45.426-.141.766-.505 1.133-.759.114-.082.227-.195.313-.195h4.852c-.114.309-.2.59-.344.844-.992 2.101-2.692 3.367-4.934 3.93-2.695.699-5.305.476-7.715-.985-2.125-1.262-3.343-3.199-3.77-5.613a8.87 8.87 0 0 1 .622-5.418c1.223-2.637 3.375-4.152 6.242-4.66 1.844-.364 3.77-.168 5.473.59 2.523 1.18 3.968 3.171 4.453 5.867.086.617.14 1.234.14 1.824.086.645.06 1.234.06 1.879zm-4.767-3.308c-.14-.984-.511-1.828-1.304-2.414-1.192-.898-3.176-.93-4.508-.113a3.815 3.815 0 0 0-1.73 2.527zm0 0M106.89 80.832h4.34c.114.336.2.645.34.926.426.844 1.164 1.265 2.07 1.433.91.196 1.872.141 2.75-.113.2-.055.4-.14.598-.254.88-.504.907-1.484 0-1.965a5.962 5.962 0 0 0-1.504-.476c-1.445-.281-2.89-.477-4.308-.84a4.807 4.807 0 0 1-3.035-2.133c-1.364-2.36-.54-5.363 1.812-6.738a9.368 9.368 0 0 1 3.887-1.094c1.504-.14 3.008.055 4.394.531 2.215.758 3.52 2.274 3.86 4.579v.417h-4.281c-.2-1.234-1.079-1.964-2.868-2.02-.539.028-1.105.083-1.644.196-.14.028-.281.086-.399.168-.933.535-.96 1.574-.054 2.133.593.395 1.277.48 1.957.59 1.418.254 2.89.367 4.254.871 1.359.504 2.437 1.293 2.921 2.695.766 2.274 0 4.942-2.582 6.258-1.644.817-3.375 1.012-5.16.957a9.097 9.097 0 0 1-4.367-1.125c-1.59-.926-2.496-2.328-2.808-4.125-.114-.281-.141-.562-.172-.871zm0 0M78.277 69.996h4.875c.2 0 .227.113.285.254l3.942 9.543c.058.14.113.254.2.477l.198-.391c1.332-3.2 2.637-6.399 3.942-9.602.054-.195.226-.336.426-.308h4.765c-.058.14-.086.254-.144.34-2.325 5.304-4.621 10.609-6.946 15.914-.058.168-.199.254-.37.222h-3.716a.375.375 0 0 1-.425-.308 2403.477 2403.477 0 0 0-5.758-13.164 174 174 0 0 0-1.274-2.977zm0 0M30.063 74.18c-.852.113-1.704.195-2.524.336a6.507 6.507 0 0 0-1.418.449c-1.191.508-1.957 1.687-1.902 2.976V86.477h-4.762v-16.45h4.762v1.852a8.406 8.406 0 0 1 5.843-2.16zm0 0M103.855 86.477h-4.761v-16.45h4.761zm0 0M71.61 70.027h4.738v16.45h-4.739zm0 0M130.117 86.477h-4.707v-16.45h4.707zm0 0"/></g></svg>