<svg xmlns="http://www.w3.org/2000/svg" width="200" height="128pt" viewBox="0 0 150 128"><path fill="#fff" d="M64.75 31.83a11.72 11.72 0 016.2-4.52c-.36.35-.76.68-1.08 1.09a7.79 7.79 0 014 .53c.14 1.16.28 2.32.4 3.49a.29.29 0 00.13-.27c.13-1.07.23-2.14.38-3.21a7.42 7.42 0 014-.54c-.3-.42-.72-.73-1.09-1.1 2.44.77 4.67 2.32 6.12 4.44-.44-.2-.84-.49-1.3-.63.56 1.23.88 2.6.72 3.95-1.1.45-2.16.99-3.26 1.45.17.1.36.02.54-.01.99-.22 1.99-.39 2.97-.61a7.67 7.67 0 011.79 3.66c.26-.39.45-.82.6-1.26.12.58.03 1.17-.04 1.75a11.89 11.89 0 01-2.19 5.28c.06-.46.16-.91.2-1.38a8.35 8.35 0 01-3.53 1.9c-.84-.9-1.64-1.83-2.5-2.7.48 1.13 1.2 2.14 1.75 3.23a8.04 8.04 0 01-2.96 2.79c.46.08.93.14 1.4.22a11.9 11.9 0 01-7.37.04c.46-.13.93-.17 1.4-.26a8.28 8.28 0 01-2.94-2.78c.52-.99 1.09-1.94 1.63-2.92.07-.1.08-.2.05-.31-.77.93-1.63 1.78-2.44 2.68a7.33 7.33 0 01-2.64-1.2c-.31-.21-.57-.5-.9-.68.05.46.15.92.22 1.38a12.02 12.02 0 01-2.34-7.14c.25.45.4.93.7 1.35a7.78 7.78 0 011.78-3.66c1.19.23 2.36.53 3.55.69-1.05-.57-2.17-1-3.24-1.52-.12-.18-.09-.42-.1-.63 0-1.14.3-2.27.77-3.3-.5.15-.94.42-1.38.71m4.43 4.9c.65 2 1.32 4 1.95 6 2.13.04 4.26.04 6.4 0 .61-2 1.3-4 1.93-6-1.7-1.24-3.42-2.49-5.14-3.73a955.75 955.75 0 00-5.14 3.73zm0 0"/><path fill="#931c80" d="M70.58.18c.32-.04.67-.12.97.03.17.33.18.7.26 1.06.87 4.66 1.73 9.33 2.61 13.99.03.18.08.38-.03.56-.19.2-.48.18-.73.25a17.31 17.31 0 00-11.64 8.37c-.12.28-.46.44-.73.24-4.2-2.44-8.4-4.88-12.61-7.31-.26-.15-.53-.28-.74-.48-.25-.37.16-.74.32-1.07A33.64 33.64 0 0170.58.18zm0 0"/><path fill="#e10b17" d="M78.19 3.88a33.76 33.76 0 0123.92 7.83c.29.24.82.58.5 1-3.34 3.87-6.69 7.7-10.03 11.55-.18.27-.56.2-.76-.02a17.38 17.38 0 00-14-4.06c-.27.08-.66 0-.68-.35-.74-5-1.48-9.99-2.22-14.98-.07-.24-.02-.56.26-.63 1-.18 2-.27 3-.34zm0 0"/><path fill="#02509b" d="M42.25 16.96c.26-.15.53.03.77.14 4.38 2.35 8.77 4.69 13.15 7.04.41.16.29.61.1.9a17.18 17.18 0 00-.84 14.35c.17.28.1.7-.27.79-4.7 1.8-9.41 3.62-14.12 5.42-.24.12-.59.1-.68-.2A33.45 33.45 0 0141 19.36c.4-.8.72-1.67 1.26-2.39zm0 0"/><path fill="#ef8704" d="M101.5 17.8c.18-.12.45-.06.6.1a33.33 33.33 0 017.37 10.12 33.4 33.4 0 013.16 16.1c0 .35-.38.47-.66.42-5.04-.25-10.09-.48-15.13-.74-.34.03-.46-.35-.41-.63a17.23 17.23 0 00-5.49-13.49.48.48 0 01-.04-.78c3.39-3.57 6.79-7.13 10.17-10.7.14-.14.27-.29.43-.4zm0 0"/><path fill="#1e1e1c" d="M73 25.83c2.06-.2 4.18.07 6.1.86a12.74 12.74 0 016.26 5.49 12.55 12.55 0 011.58 7.36 12.53 12.53 0 01-2.67 6.68 12.73 12.73 0 01-12.8 4.49 12.63 12.63 0 01-6.34-3.62 12.56 12.56 0 01-1.38-15.67A12.69 12.69 0 0173 25.83m-8.24 6c.44-.29.89-.56 1.38-.72a8.03 8.03 0 00-.77 3.31c.01.2-.02.45.1.63 1.07.53 2.2.95 3.24 1.52-1.2-.16-2.36-.46-3.55-.69a7.78 7.78 0 00-1.77 3.66c-.3-.42-.46-.9-.71-1.35.01 2.55.8 5.1 2.34 7.14-.07-.46-.17-.92-.22-1.38.33.19.59.47.9.68a7.33 7.33 0 002.64 1.2c.81-.9 1.67-1.75 2.44-2.68a.32.32 0 01-.05.31c-.54.98-1.11 1.93-1.63 2.91a8.28 8.28 0 002.94 2.79c-.47.09-.94.13-1.4.25 2.39.72 5 .8 7.37-.04-.47-.07-.94-.13-1.4-.21a8.04 8.04 0 002.96-2.8c-.55-1.08-1.27-2.1-1.75-3.21.86.86 1.66 1.8 2.5 2.68a8.34 8.34 0 003.54-1.89c-.05.47-.15.92-.2 1.38a11.89 11.89 0 002.18-5.28c.07-.58.16-1.17.04-1.75a5.3 5.3 0 01-.6 1.26 7.67 7.67 0 00-1.79-3.66c-.98.22-1.98.4-2.97.61-.18.03-.37.1-.54 0 1.1-.45 2.16-1 3.26-1.44a7.45 7.45 0 00-.72-3.96c.46.15.86.43 1.3.64a11.64 11.64 0 00-6.12-4.44c.37.37.78.68 1.1 1.1a7.41 7.41 0 00-4 .54c-.16 1.07-.26 2.14-.39 3.21 0 .12-.04.2-.13.26-.12-1.16-.26-2.32-.4-3.48a7.77 7.77 0 00-4-.54c.32-.4.72-.73 1.09-1.08a11.72 11.72 0 00-6.2 4.52zm0 0"/><path fill="#1e1e1c" d="M69.18 36.73A955.75 955.75 0 0174.32 33c1.72 1.24 3.43 2.49 5.14 3.73-.64 2-1.32 4-1.93 6-2.13.04-4.27.04-6.4 0-.63-2-1.3-4-1.95-6zm0 0"/><path fill="#198ccd" d="M51.72 43.62c.38-.14.57.29.68.56A17.3 17.3 0 0063 53.66c.18.07.4.1.55.24.17.2.05.47-.01.69-1.5 4.74-2.96 9.5-4.46 14.23a.46.46 0 01-.67.36 33.46 33.46 0 01-12.62-7.12 33.61 33.61 0 01-8.4-11.67.48.48 0 01.28-.72c4.69-2.01 9.36-4.05 14.05-6.05zm0 0"/><path fill="#fdea14" d="M91.77 45.63c.19-.12.42-.07.63-.06 4.98.4 9.97.77 14.95 1.17.33-.03.49.3.43.6a33.27 33.27 0 01-4.22 13.93 33.58 33.58 0 01-9.47 10.62c-.23.21-.61.2-.77-.08-3-4.05-5.97-8.12-8.96-12.18a.5.5 0 01.14-.8c4-2.88 6.66-7.53 7.07-12.43.04-.26-.02-.58.2-.77zm0 0"/><path fill="#009541" d="M79.25 56.53c.26-.21.62-.07.76.22 2.77 4.12 5.56 8.24 8.33 12.37.18.23.33.6.01.8a33.73 33.73 0 01-28.04 4.56c-.31-.05-.38-.4-.28-.66 1.33-4.8 2.66-9.61 3.99-14.41.05-.2.1-.43.32-.51.28-.05.55.07.81.13 4.77 1.26 10.05.3 14.1-2.5zm0 0"/><path d="M77.88 81.7c.87-.29 1.9-.1 2.55.56a2.52 2.52 0 01-1.92 4.3c-1.36 0-2.45-1.33-2.32-2.66a2.53 2.53 0 011.7-2.2zm-40.33 19.39c.05-5.66-.02-11.31.04-16.97 1.47.02 2.94.02 4.42 0 .02 4.38 0 8.75.01 13.12 1.77 0 3.55.01 5.32 0 .01 1.29 0 2.58 0 3.87-3.26-.02-6.53.03-9.79-.02zm27.47-16.96c1.47.02 2.95-.03 4.43.03-.03 4.36 0 8.72-.01 13.08 1.77 0 3.56.02 5.33-.01.06 1.29.01 2.59.03 3.88h-9.78zm-11.54 3.21a5.52 5.52 0 013.74.55c.47.27.88.61 1.3.95-.01-.45-.01-.9 0-1.34 1.36 0 2.73 0 4.1 0 0 4.54 0 9.07 0 13.61-1.4 0-2.79 0-4.18 0 0-.4 0-.8 0-1.2a7.08 7.08 0 01-2.57 1.35 6.37 6.37 0 01-5.7-1.35 6.84 6.84 0 01-2.05-4.3 7.8 7.8 0 011.09-5.27 6.5 6.5 0 014.27-3m.94 3.89a3.09 3.09 0 00-2.12 2.5c-.23 1.38.34 2.98 1.63 3.65 1.27.66 2.96.3 3.9-.76a3.46 3.46 0 00-.34-4.83 3.35 3.35 0 00-3.07-.56zm30.5-2.81a5.77 5.77 0 015.25-.92c.88.27 1.62.85 2.26 1.5 0-.5 0-1 0-1.5 1.31-.03 2.62.01 3.94-.01.03 3.33 0 6.66 0 9.99-.01 1.52.16 3.11-.45 4.55a5.98 5.98 0 01-3.94 3.49c-2.1.6-4.47.48-6.44-.52a5.13 5.13 0 01-2.83-3.9c1.55.01 3.1 0 4.65.02.29.5.74.93 1.32 1.03.85.15 1.77.08 2.53-.33.56-.3.98-.86 1.02-1.5.02-.4 0-.8 0-1.2a6.38 6.38 0 01-3.6 1.54 5.6 5.6 0 01-4.06-1.42A6.96 6.96 0 0182.45 94c0-2.08.8-4.25 2.48-5.57m3.76 2.44a2.6 2.6 0 00-1.76 1.32c-.84 1.52-.56 3.83 1.08 4.7a3.1 3.1 0 003.62-.7 3.5 3.5 0 00.23-4.18c-.66-1.02-2.02-1.38-3.17-1.15zm12.56-2.58a6.23 6.23 0 014.66-.92c1.02.21 1.93.8 2.67 1.52 0-.46.01-.92.01-1.38 1.35 0 2.71 0 4.07 0 .01 4.54 0 9.07 0 13.6h-4.14c0-.42 0-.86.02-1.3-2.3 2.3-6.47 2.14-8.65-.23-1.38-1.5-1.86-3.62-1.78-5.6a7.3 7.3 0 013.14-5.69m3.2 2.96a3.01 3.01 0 00-1.95 1.94c-.52 1.53.05 3.5 1.56 4.24 1.36.65 3.13.18 4.02-1.02 1-1.35.8-3.44-.46-4.55a3.3 3.3 0 00-3.16-.61zM76.6 87.5c1.37-.02 2.75 0 4.12-.01.06 4.53 0 9.07.04 13.6-1.4.04-2.78 0-4.16.02 0-4.54 0-9.07 0-13.61zm0 0"/><path fill="#e30b18" d="M13.81 107.91c-1.04-1.88-.99-4.4.3-6.16.2 1.18.9 2.16 1.48 3.18 1.2 2.08 2.41 4.14 3.6 6.23.45.78.63 1.68.74 2.57 2.16.57 4.3 1.47 5.96 3a5.1 5.1 0 011.82 4 5.39 5.39 0 01-1.93 3.54 13.38 13.38 0 01-5.01 2.67c-1.84.58-3.75.85-5.67.99a10.16 10.16 0 00-2.15 0 21.4 21.4 0 01-8.37-1.95 9.47 9.47 0 01-3.65-2.95 4.4 4.4 0 01-.72-3.58c.44-1.73 1.84-3.02 3.31-3.93a15.45 15.45 0 014.4-1.79 6.29 6.29 0 00.83 3.26c1.45 2.5 2.9 5 4.35 7.51.31.5.47 1.08.65 1.64a5.95 5.95 0 00.12-6.19c-.99-1.7-1.97-3.4-2.96-5.1-.34-.61-.74-1.2-.95-1.87a6.1 6.1 0 01.66-5.3c.16.61.35 1.22.68 1.77 1.73 3 3.46 5.98 5.2 8.97.3.54.55 1.13.66 1.75a5.78 5.78 0 00.26-6.02c-1.2-2.08-2.41-4.15-3.6-6.24zm21.09 1.9c1.31-.87 2.94-1.08 4.49-1.07a14.9 14.9 0 014.65.72c-.03.9-.2 1.81-.53 2.65a12.21 12.21 0 00-3.56-.73c-1.07-.05-2.24-.05-3.15.58-.89.6-1.03 1.95-.45 2.8.5.75 1.33 1.16 2.1 1.53 1.73.77 3.59 1.37 5 2.68 2 1.8 1.92 5.41-.22 7.08-1.26 1-2.92 1.34-4.5 1.4-1.84.05-3.71-.11-5.43-.79-.14-.08-.37-.09-.4-.26a8.55 8.55 0 01.47-2.56c1.68.71 3.51 1.08 5.34.99a4.34 4.34 0 002.5-.79c.9-.75.85-2.23.07-3.04-.63-.68-1.5-1.06-2.33-1.45-1.64-.75-3.47-1.32-4.72-2.68a5.07 5.07 0 01-1.07-4.49 4.08 4.08 0 011.74-2.56zm41.3-.48a12.35 12.35 0 012.85-.4c.1 1.63-.04 3.27.07 4.9 1.49-.05 2.98 0 4.47-.02a21.2 21.2 0 01-.26 2.46c-1.42.02-2.84-.04-4.26.02.03 2.19 0 4.37.02 6.56.01.75.36 1.6 1.12 1.86 1.07.38 2.24.12 3.3-.2-.07.81-.2 1.61-.32 2.42a6.96 6.96 0 01-3.63.34 3.73 3.73 0 01-2.72-1.64c-.64-1.01-.65-2.26-.66-3.41.01-4.3-.03-8.6.02-12.89zm46.55-.01c.91-.3 1.89-.37 2.85-.4.05 6.05 0 12.1.02 18.14-.9-.01-1.79.03-2.68-.03-.03-.52-.1-1.05-.12-1.58a3.92 3.92 0 01-2.34 1.75 5.73 5.73 0 01-4.93-1.04c-1.32-1.1-1.93-2.82-2.1-4.48a9.97 9.97 0 01.55-4.59 5.55 5.55 0 012.99-3.04c1.81-.77 3.85-.8 5.76-.48 0-1.42 0-2.83 0-4.25m-4.34 6.96c-1.14.54-1.8 1.75-1.97 2.96a7.13 7.13 0 00.38 3.9 3.03 3.03 0 001.94 1.7c1.34.4 2.84.06 3.93-.78.14-.6.02-1.24.06-1.85-.01-2.04.03-4.09-.02-6.12-1.42-.25-2.98-.48-4.32.19zm-70.1-.9c1.2-1.3 2.99-1.86 4.7-1.97 1.94-.11 3.9.07 5.76.67.04 4.32 0 8.65.02 12.97-.89.01-1.77.02-2.65 0-.05-.49-.09-.97-.14-1.45-.53.69-1.2 1.3-2.06 1.54a5.6 5.6 0 01-5.69-1.5c-1.23-1.42-1.62-3.36-1.61-5.18 0-1.8.42-3.72 1.68-5.07m3.35.93a3.58 3.58 0 00-1.84 2.28 7.45 7.45 0 00-.04 3.74c.24 1 .85 1.95 1.82 2.36 1.32.55 2.92.32 4.1-.48.16-.08.22-.2.2-.38 0-2.61 0-5.23 0-7.84-1.4-.2-2.93-.34-4.24.32zm12.26-2.63c1.92-.33 3.9-.46 5.82-.06 1 .23 2 .66 2.67 1.47.72.85.94 2 .96 3.08v8.88c-.97-.01-1.94.02-2.91-.02.03-2.77 0-5.55.01-8.32a3.06 3.06 0 00-.52-1.96 2.34 2.34 0 00-1.36-.76 10.64 10.64 0 00-3.85.04v11.02h-2.87c0-4.3 0-8.61.01-12.91.63-.27 1.36-.32 2.04-.46zm22.04 1.83c1.28-1.5 3.31-2.07 5.22-2.13 1.82-.04 3.68.1 5.4.74-.02 4.3 0 8.62 0 12.93-.9 0-1.79.01-2.68-.01-.04-.49-.09-.98-.13-1.46a4.2 4.2 0 01-2.08 1.55 5.67 5.67 0 01-5.36-1.18 6.74 6.74 0 01-1.87-4.27c-.2-2.13.06-4.49 1.5-6.17m3.39.84A3.78 3.78 0 0087.5 119a7.14 7.14 0 00.3 4.05c.37.91 1.2 1.64 2.17 1.85 1.28.3 2.66-.04 3.7-.8.02-2.7 0-5.4.01-8.1-1.43-.2-3-.34-4.32.35zm10.28-2.24c2.4-.59 4.9-.96 7.35-.59 1.16.19 2.35.6 3.14 1.5a4.76 4.76 0 011.02 3.16c0 2.95 0 5.91 0 8.87h-2.86c0-2.6 0-5.2 0-7.8-.04-.8 0-1.66-.45-2.35-.42-.65-1.21-.9-1.94-1a11.8 11.8 0 00-3.38.13v11.02h-2.87c0-4.31.02-8.63 0-12.94zm32.66-.52a8.08 8.08 0 014.25.12c1.3.42 2.42 1.4 2.97 2.67.73 1.6.63 3.42.43 5.12-3.04.02-6.08-.01-9.11.01.16.94.52 1.9 1.28 2.52.92.75 2.18.9 3.33.86 1.44-.06 2.86-.41 4.2-.98-.1.78-.24 1.55-.38 2.31-.04.15-.04.33-.21.37-1.31.57-2.75.77-4.16.76a8.62 8.62 0 01-3.73-.77 5.32 5.32 0 01-2.4-2.3 8.55 8.55 0 01-.86-4.22 7.76 7.76 0 011.23-4.38 5.24 5.24 0 013.16-2.1m-.48 3.01a4.07 4.07 0 00-1.03 2.53c2.14 0 4.27 0 6.4 0a4.57 4.57 0 00-.42-1.88 2.68 2.68 0 00-1.96-1.39c-1.03-.18-2.22-.02-2.99.74zm10.7-2.5c2.37-.72 4.9-.85 7.36-.62.11.82-.06 1.67-.25 2.47a17.33 17.33 0 00-4.2.03c-.05 3.7 0 7.39-.02 11.08-.97-.01-1.94.02-2.91-.02.03-4.31 0-8.63.01-12.94zm0 0"/></svg>