<svg xmlns="http://www.w3.org/2000/svg" width="200" height="208pt" viewBox="0 0 150 208"><g fill="#12233f"><path d="M15.121 68.125c2.145-6.824 5.492-12.426 10.016-12.926 8.652-.965 18.75 13.543 20.515 30.586 1.637 15.762-2.058 33.016-10.71 33.985-5.278.585-10.172-1.567-13.95-9.747 4.41.829 8.953.575 13.242-.734a108.197 108.197 0 0 0 2.614-24.172A70.887 70.887 0 0 0 25.53 64.266a45.526 45.526 0 0 0-10.41 3.863m6.938 33.125c-3.418.414-6.817-4.656-7.618-11.309-.804-6.656 1.344-12.37 4.704-12.78 3.363-.411 6.824 4.647 7.617 11.304.793 6.652-1.344 12.375-4.703 12.75m77.718-32.692c.594 6.098-3.859 11.532-9.968 12.16-6.106.63-11.575-3.785-12.239-9.878-.664-6.094 3.723-11.579 9.82-12.282 6.188-.656 11.735 3.82 12.387 10m20.38-2.25c-1.598-18.43-17.837-32.09-36.298-30.527-18.336 2.652-31.058 19.629-28.425 37.941 1.488 15.586 13.414 28.164 28.921 30.496l-.671-6.511-.805-6.375-3.875.402a70.898 70.898 0 0 1-7.945-9.191c-2.149-3.14-4-6.473-5.528-9.957 0 0 1.68-5.832 3.809-11.22 2.23-5.46 4.96-10.468 4.96-10.468a104.566 104.566 0 0 1 10.59-1.847c5.755-.657 11.7-.672 11.7-.672a73.805 73.805 0 0 1 7.363 8.695 87.336 87.336 0 0 1 6.137 10.46 50.862 50.862 0 0 1-2.922 10.731 71.364 71.364 0 0 1-5.879 10.957l-3.492.57.672 6.223.414 6.594c14.57-5.781 23.328-20.723 21.246-36.238M113.64 37.98L98.704 24.434a23.591 23.591 0 0 1 5.277 2.359 59.23 59.23 0 0 1 11.926 8.223 54.105 54.105 0 0 1 12.848 15.914 157.542 157.542 0 0 1-15.113-12.957M54.637 23.172a64.637 64.637 0 0 0-11.645 5.508 64.6 64.6 0 0 0 21.961-8.137 59.37 59.37 0 0 0-10.316 2.629M84.754 21.223a24.262 24.262 0 0 0-13.176-1.434c1.414.211 2.781.668 4.035 1.356l-16 7.18-19.14 5.007a4.197 4.197 0 0 1-2.399-1.32c-4.96 3.785-8.125 7.183-8.066 8 .176 1.629 13.23-1.387 28.336-6.578 15.125-5.188 26.89-10.653 26.379-12.211m43.023 67.187c1.977-14.012 4.82-25.46 6.203-24.988a50.42 50.42 0 0 1 2.48 26.594c-1.695 11.746-7.261 24.261-9.624 24.117-1.453-.09-1.016-11.727.941-25.719m-62.965 52.754c-7.035-1.434-10.57-4.18-11.539-7.996-2.168-8.39 11.54-16.195 28.504-18.781 15.508-2.364 28.844 2.605 30.242 8.39 1.09 4.469-.992 8.07-6.922 11.98.625-3.19.715-6.46.27-9.679a172.134 172.134 0 0 0-22.387-3.602 88.263 88.263 0 0 0-21.16 10.57 24.975 24.975 0 0 0 3 9.15m32.16-7.368c.496 2.996-4.48 6.281-11.117 7.344-6.64 1.058-12.398-.504-12.875-3.512-.496-2.996 4.496-6.293 11.094-7.383 6.597-1.09 12.386.516 12.86 3.52M9.913 163.117v16.973h6.961v4.984H4.187v-21.953zm16.223 0h5.734v21.953h-5.734zm26.636-.8a10.705 10.705 0 0 1 9.93 5.507l-4.605 2.52a6.035 6.035 0 0 0-5.387-3.035c-3.766 0-5.461 3.02-5.461 7.046 0 3.692 1.68 6.704 5.969 6.704a4.891 4.891 0 0 0 4.879-3.899h-5.043v-4.586h11.004v1.207a10.632 10.632 0 0 1-2.743 8.723 10.663 10.663 0 0 1-8.507 3.375 11.285 11.285 0 0 1-8.282-3.39 11.228 11.228 0 0 1-3.191-8.352 11.412 11.412 0 0 1 3.207-8.32 11.458 11.458 0 0 1 8.219-3.493m26.32.793v13.469a3.55 3.55 0 0 0 1.02 2.937 3.562 3.562 0 0 0 2.941 1.02 3.513 3.513 0 0 0 3.91-3.664V163.12h5.8v14.047c0 5.016-3.429 8.539-9.827 8.539-4.844 0-9.582-2.52-9.582-7.91V163.12zm30.05 17.074h7.122v4.88H103.39v-21.954h12.773v5.016h-6.996v3.558h6.594v4.868h-6.594zm37.942 4.88h-5.762v-17.25h-3.16v-4.704h8.907zm0 0"/></g></svg>