<svg xmlns="http://www.w3.org/2000/svg" width="200" height="179pt" viewBox="0 0 150 179"><path fill="#fff" d="M75.1 179c-34.73 0-62.97-28.53-62.97-63.6 0-.42 0-90.02.02-105.58V0h125.9v9.82c0 15.44 0 105 0 105.6 0 35.05-28.24 63.58-62.96 63.58"/><path fill="#a69038" d="M75.1 171.9c-30.8 0-55.84-25.34-55.84-56.5V7.1h111.65c.02 14.78.03 107.2.03 108.3 0 31.16-25.05 56.5-55.84 56.5M134.47 9.83V3.54H15.7v6.28c0 15.68 0 105.17 0 105.6 0 33.1 26.64 60.03 59.4 60.03 32.75 0 59.4-26.93 59.4-60.04 0-.58 0-90.25-.02-105.58M24.6 73.24v-3.48c0-2.5 1.27-3.7 4-3.7.8 0 1.75.13 2.35.32.2.08.25.17.25.37v1.12c0 .24-.1.3-.4.22a8.77 8.77 0 0 0-1.93-.26c-1.5 0-2.1.65-2.1 2.16v3.07c0 1.53.55 2.14 2.13 2.14.78 0 1.6-.18 2.15-.4.13-.05.36 0 .3.24l-.22 1.2c-.04.24-.13.33-.3.4-.6.2-1.36.32-2.3.32-2.82 0-3.92-1.07-3.92-3.72m15.65-6.8V76.6c0 .14-.08.22-.25.22h-.24c-1.05 0-1.65-.55-1.65-1.73V72.3h-3.23v4.27c0 .14-.08.22-.26.22h-.22c-1.05 0-1.65-.55-1.65-1.73v-8.62c0-.22.06-.26.25-.26h1.66c.16 0 .23.07.23.23v4.16h3.24v-4.15c0-.14.08-.23.24-.23H40c.2 0 .25.07.25.23m6.68 6.6c-.3-1.57-.8-3.48-1.2-5.1h-.1c-.4 1.62-.9 3.53-1.2 5.1zm-5.5 3.5c.93-3.6 1.85-7.13 2.76-9.94.07-.25.25-.37.58-.37h1.78c.37 0 .5.12.6.38.88 2.8 1.84 6.35 2.78 9.97.04.18-.03.24-.23.24h-1.6c-.2 0-.34-.08-.37-.22l-.4-1.85h-3.25c-.15.63-.27 1.24-.4 1.88-.03.13-.16.2-.34.2h-1.7c-.2 0-.26-.08-.22-.25m9.6.03c0-2.85.13-6.8.34-10.12.02-.14.1-.24.25-.24h1.65c.2 0 .27.03.36.2l2.58 5.22h.06l2.4-5.2c.1-.2.15-.22.37-.22h1.65c.15 0 .22.1.23.24.25 3.3.4 7.27.4 10.12 0 .15-.07.23-.24.23h-1.57c-.18 0-.27-.05-.27-.22 0-2.5-.02-5.2-.1-7.12H59l-2.08 4.47c-.1.16-.2.27-.4.27h-.66c-.2 0-.3-.1-.4-.27l-2.2-4.47h-.1c-.05 1.92-.05 4.47-.05 7.12 0 .17-.07.23-.25.23h-1.57c-.18 0-.25-.07-.25-.22M67.7 69.5c0-.64-.15-1.02-.4-1.25-.3-.26-.67-.33-1.42-.33h-.78v3.44h.7c.83 0 1.22-.08 1.52-.37.26-.25.38-.68.38-1.4zm2.17-.02v.15c0 1.25-.34 2.14-1.05 2.7-.6.5-1.5.73-2.7.73H65.1v3.53c0 .14-.08.22-.26.22h-.23c-1.04 0-1.64-.55-1.64-1.73v-8.6c0-.2.07-.28.3-.28h2.87c1.3 0 2.16.2 2.73.66.62.47 1 1.25 1 2.6m.72 7.1V75.5c0-.14.08-.22.23-.22h1.1v-7.52h-1.1c-.15 0-.22-.08-.22-.23v-1.07c0-.15.08-.24.25-.24h4.38c.17 0 .28.05.24.24l-.13 1.07c-.02.18-.1.23-.28.23h-.97v7.52h1.07c.15 0 .22.05.22.23v1.08c0 .15-.1.23-.25.23h-4.3c-.12 0-.22-.07-.22-.22m11.26-1.8c.32-.32.5-.9.5-1.57v-3.38c0-.77-.2-1.24-.52-1.57-.27-.27-.7-.4-1.25-.4-.54 0-1 .13-1.28.4-.33.33-.5.8-.5 1.57v3.4c0 .67.17 1.24.5 1.57.27.26.73.4 1.27.4s1-.14 1.27-.4m-4.15 1.27c-.68-.6-1.05-1.47-1.05-2.64V69.6c0-1.33.5-2.3 1.37-2.88.66-.43 1.52-.65 2.55-.65 1.06 0 1.96.25 2.63.72.8.58 1.3 1.52 1.3 2.8v3.83c0 1.3-.46 2.23-1.28 2.8-.66.5-1.56.74-2.65.74-1.22 0-2.2-.3-2.88-.9m16.2-9.62V76.6c0 .13-.1.22-.25.22H92.6c-.3 0-.45-.13-.54-.3L88.25 70h-.08v6.6c0 .14-.1.22-.27.22h-.08c-.97 0-1.53-.55-1.53-1.73v-8.65c0-.14.04-.23.2-.23h1.2c.26 0 .4.1.48.3l3.77 6.44h.08v-6.5c0-.17.07-.24.22-.24h1.42c.18 0 .24.07.24.23m2.14 10.17c-.24-.08-.3-.2-.32-.36l-.26-1.38c-.03-.2.1-.25.34-.16.54.23 1.5.48 2.28.48 1.2 0 1.82-.48 1.82-1.3v-.06c0-.74-.34-1.2-1.38-1.55l-.66-.24c-1.4-.5-2.24-1.45-2.24-3v-.1c0-1.92 1.5-2.88 3.62-2.88.63 0 1.37.1 1.86.25.24.08.27.2.27.4v1.07c0 .23-.16.28-.4.23a7.37 7.37 0 0 0-1.65-.2c-.95 0-1.6.3-1.6 1.17v.05c0 .75.33 1.13 1.18 1.43l.72.27c1.64.6 2.34 1.45 2.34 2.96v.15c0 1.88-1.35 3.1-3.66 3.1-.74 0-1.67-.12-2.26-.33m14.84-10.17V76.6c0 .14-.08.22-.26.22h-.23c-1.06 0-1.67-.55-1.67-1.73V72.3h-3.23v4.27c0 .14-.1.22-.26.22H105c-1.05 0-1.64-.55-1.64-1.73v-8.62c0-.22.05-.26.24-.26h1.67c.16 0 .23.07.23.23v4.16h3.23v-4.15c0-.14.07-.23.24-.23h1.66c.18 0 .25.07.25.23m1.5 10.13V75.5c0-.14.1-.22.23-.22h1.1v-7.52h-1.1c-.15 0-.22-.08-.22-.23v-1.07c0-.15.1-.24.25-.24H117c.18 0 .28.05.24.24l-.14 1.07c-.02.18-.1.23-.28.23h-.97v7.52h1.07c.15 0 .22.05.22.23v1.08c0 .15-.1.23-.25.23h-4.3c-.12 0-.22-.07-.22-.22m11.03-7.08c0-.64-.15-1.02-.4-1.25-.3-.26-.66-.33-1.4-.33h-.8v3.44h.7c.84 0 1.23-.08 1.52-.37.27-.25.4-.68.4-1.4zm2.18-.02v.15c0 1.25-.35 2.14-1.06 2.7-.6.5-1.5.73-2.7.73h-1v3.53c0 .14-.1.22-.27.22h-.23c-1.05 0-1.66-.55-1.66-1.73v-8.6c0-.2.07-.28.3-.28h2.87c1.3 0 2.17.2 2.73.66.62.47 1.02 1.25 1.02 2.6M24.6 82.13c0 .43.35.77.78.77h99.43a.77.77 0 1 0 0-1.55H25.4a.78.78 0 0 0-.78.77"/><path fill="#293f9c" d="M93.82 158.74v-4.03h-5.44v-13.44h-4.36v14.78c0 1.5 1.2 2.7 2.7 2.7zm-36.73-2.7c0 1.5 1.2 2.7 2.7 2.7h7.86v-4.03h-6.2V152h5.7v-4.08h-5.7v-2.6h6.23v-4.06H57.1zm16.26 2.7a2.7 2.7 0 0 1-2.7-2.7v-14.78H81.3v4.05h-6.28v2.62h5.7V152h-5.7v6.74zm0 0"/><path fill="#a69038" d="M82.84 108.16a3.3 3.3 0 0 0-3.32 3.3c0 1.83 1.48 3.3 3.32 3.3a3.3 3.3 0 0 0 3.32-3.3 3.3 3.3 0 0 0-3.32-3.3m-3.82-5.73a2.96 2.96 0 0 0-2.96 2.95 2.96 2.96 0 0 0 2.96 2.95c1.64 0 2.96-1.32 2.96-2.95a2.96 2.96 0 0 0-2.96-2.95m5.9-3.02a2.9 2.9 0 0 0-2.9 2.9 2.9 2.9 0 0 0 2.9 2.88 2.9 2.9 0 0 0 2.9-2.9 2.9 2.9 0 0 0-2.9-2.87m-9.9-1.08a2.45 2.45 0 0 0-2.44 2.45 2.45 2.45 0 0 0 2.46 2.44 2.45 2.45 0 0 0 2.45-2.43 2.45 2.45 0 0 0-2.47-2.45M70.6 96.3a2.04 2.04 0 0 0-2.04 2.02c0 1.1.9 2 2.03 2a2.02 2.02 0 0 0 2.02-2c0-1.12-.9-2.03-2.03-2.03m-4.15-.52a1.6 1.6 0 0 0-1.6 1.6 1.6 1.6 0 0 0 1.6 1.6 1.6 1.6 0 0 0 1.6-1.6 1.6 1.6 0 0 0-1.6-1.6m5.08-2.88a1.53 1.53 0 0 0 0 3.06 1.53 1.53 0 1 0 0-3.06M75.4 90c-.85 0-1.53.66-1.53 1.5s.68 1.5 1.52 1.5c.82 0 1.5-.68 1.5-1.5S76.2 90 75.4 90m-3.4.2c-.65 0-1.2.54-1.2 1.2a1.2 1.2 0 0 0 2.4 0c0-.66-.54-1.2-1.2-1.2m-2.9.63a1.08 1.08 0 1 0 0 2.15 1.08 1.08 0 0 0 0-2.15m-1.37 2.34a1.16 1.16 0 1 0 0 2.32 1.16 1.16 0 1 0 0-2.33m-3.75.3c-.58 0-1.07.5-1.07 1.07 0 .6.5 1.06 1.08 1.06.6 0 1.07-.47 1.07-1.06 0-.58-.48-1.06-1.07-1.06M65.75 92a.8.8 0 0 0-.8.8.8.8 0 1 0 1.6 0 .8.8 0 0 0-.8-.8m-4.34 2.6a.74.74 0 0 0-.73.72c0 .4.33.74.74.74s.74-.33.74-.74a.73.73 0 0 0-.73-.73m1.4 1.4c-.7 0-1.27.57-1.27 1.28 0 .7.58 1.27 1.28 1.27.72 0 1.3-.56 1.3-1.27 0-.7-.58-1.28-1.3-1.28m-3.14.4c-.55 0-1 .44-1 1 0 .54.45.98 1 .98s1-.44 1-1c0-.54-.45-1-1-1m-2.06 1.8a.67.67 0 0 0-.67.66c0 .36.3.66.67.66a.67.67 0 0 0 .67-.66c0-.37-.3-.66-.67-.66m22.6-2.37a2.4 2.4 0 0 0-2.4 2.42 2.4 2.4 0 0 0 2.4 2.4 2.4 2.4 0 0 0 2.43-2.4 2.4 2.4 0 0 0-2.42-2.4m8.95 8.88a3.04 3.04 0 0 0-3.05 3.03c0 1.68 1.37 3.04 3.05 3.04 1.7 0 3.05-1.36 3.05-3.04a3.04 3.04 0 0 0-3.05-3.03m3.32-5.32a2.64 2.64 0 0 0-2.64 2.63 2.64 2.64 0 0 0 2.64 2.64 2.64 2.64 0 0 0 2.65-2.63 2.64 2.64 0 0 0-2.65-2.62m-3.8-4.4a2.45 2.45 0 0 0-2.44 2.45 2.45 2.45 0 0 0 2.45 2.44 2.45 2.45 0 0 0 2.46-2.45 2.45 2.45 0 0 0-2.46-2.44m-4.63-3a2.28 2.28 0 0 0-2.28 2.3 2.28 2.28 0 0 0 2.3 2.26c1.25 0 2.27-1.02 2.27-2.27a2.28 2.28 0 0 0-2.3-2.28m-4.6-1.55a1.9 1.9 0 1 0 0 3.8c1.07 0 1.92-.84 1.92-1.9a1.9 1.9 0 0 0-1.9-1.9M75.6 93.7c-1.1 0-2 .9-2 2s.9 1.98 2 1.98a2 2 0 0 0 0-3.98"/><path fill="#293f9c" d="M76.13 120.88a3.3 3.3 0 0 1-3.3 3.3 3.3 3.3 0 0 1-3.33-3.3 3.3 3.3 0 0 1 3.32-3.3 3.3 3.3 0 0 1 3.3 3.3m3.9-3.2a2.96 2.96 0 0 0-2.97 2.95 2.96 2.96 0 0 0 2.97 2.95 2.96 2.96 0 0 0 2.96-2.95 2.96 2.96 0 0 0-2.96-2.95m-.27 6.7a2.9 2.9 0 0 0-2.9 2.87 2.88 2.88 0 0 0 2.9 2.88 2.88 2.88 0 0 0 2.9-2.88 2.9 2.9 0 0 0-2.9-2.88m6.27-7.32a2.45 2.45 0 0 0-2.46 2.45 2.45 2.45 0 0 0 2.46 2.44 2.45 2.45 0 0 0 2.46-2.44 2.45 2.45 0 0 0-2.46-2.45m4.36-2.18a2.03 2.03 0 0 0-2.03 2.02c0 1.1.9 2 2.03 2 1.12 0 2.03-.9 2.03-2a2.03 2.03 0 0 0-2.02-2.03m2.9-2.68c-.9 0-1.62.7-1.62 1.6a1.6 1.6 0 0 0 3.2 0 1.6 1.6 0 0 0-1.6-1.6m.02 5.9a1.53 1.53 0 1 0 0 3.07c.86 0 1.54-.68 1.54-1.53 0-.84-.68-1.53-1.53-1.53m.6 4.82c-.83 0-1.5.68-1.5 1.5 0 .84.67 1.5 1.5 1.5.84 0 1.5-.66 1.5-1.5 0-.82-.66-1.5-1.5-1.5m1.8-2.54c-.67 0-1.2.54-1.2 1.2 0 .65.53 1.18 1.2 1.18.65 0 1.2-.53 1.2-1.2 0-.64-.55-1.18-1.2-1.18m1-2.66a1.08 1.08 0 1 0 0 2.16 1.08 1.08 0 0 0 0-2.16m-1.42-2.46c-.64 0-1.17.52-1.17 1.16 0 .64.54 1.15 1.18 1.15a1.16 1.16 0 1 0 0-2.3m1.7-3.25c-.6 0-1.08.48-1.08 1.06a1.07 1.07 0 0 0 2.13 0c0-.58-.48-1.06-1.06-1.06m.65 2.66a.8.8 0 0 0-.8.8.8.8 0 0 0 1.6 0 .8.8 0 0 0-.8-.8m-.05-4.94a.74.74 0 1 0 0 1.47.74.74 0 0 0 0-1.46m-2.4-.3c-.7 0-1.28.56-1.28 1.27 0 .7.56 1.28 1.27 1.28.7 0 1.28-.57 1.28-1.27a1.28 1.28 0 0 0-1.28-1.27m1.48-2.5c-.55 0-1 .46-1 1 0 .56.45 1 1 1s1-.44 1-1a1 1 0 0 0-1-1m-.23-2.16a.67.67 0 0 0-.67.66c0 .37.3.67.67.67a.67.67 0 0 0 .67-.67c0-.36-.3-.66-.68-.66m-10.77 18.05a2.4 2.4 0 0 0-2.42 2.4 2.4 2.4 0 0 0 2.42 2.42 2.4 2.4 0 0 0 2.42-2.4 2.4 2.4 0 0 0-2.42-2.42m-12.75 2.33a3.04 3.04 0 0 0-3.05 3.03c0 1.67 1.37 3.03 3.05 3.03a3.04 3.04 0 0 0 3.05-3.02c0-1.68-1.36-3.04-3.05-3.04m3.32 6.13a2.64 2.64 0 0 0-2.64 2.64c0 1.46 1.2 2.63 2.64 2.63s2.65-1.17 2.65-2.62a2.64 2.64 0 0 0-2.65-2.63m5.88-.8a2.45 2.45 0 0 0-2.45 2.46 2.46 2.46 0 0 0 2.45 2.45 2.45 2.45 0 0 0 2.46-2.45 2.45 2.45 0 0 0-2.46-2.45m5.07-2.23a2.28 2.28 0 0 0-2.3 2.27 2.28 2.28 0 0 0 2.3 2.28 2.28 2.28 0 0 0 2.3-2.28 2.28 2.28 0 0 0-2.3-2.27m3.97-2.64a1.9 1.9 0 0 0-1.92 1.9 1.9 1.9 0 0 0 1.92 1.9 1.9 1.9 0 1 0 0-3.8m-1-5.06a2 2 0 1 0 0 3.98c1.12 0 2-.9 2-2a2 2 0 0 0-2-1.98m-30.62-.9c-1.1 0-2 .9-2 2s.9 2 2 2 2-.9 2-2a2 2 0 0 0-2-2m-4.82-1.54c-1.05 0-1.9.85-1.9 1.9 0 1.05.85 1.9 1.9 1.9a1.9 1.9 0 0 0 1.92-1.9 1.9 1.9 0 0 0-1.92-1.9m-.64-5.3a2.28 2.28 0 0 0-2.3 2.27 2.3 2.3 0 0 0 2.3 2.3 2.3 2.3 0 0 0 2.3-2.3 2.28 2.28 0 0 0-2.3-2.27m.44-5.74a2.45 2.45 0 0 0-2.46 2.45 2.46 2.46 0 0 0 2.46 2.46 2.45 2.45 0 0 0 2.46-2.45 2.45 2.45 0 0 0-2.46-2.44m2.1-5.74a2.63 2.63 0 0 0-2.65 2.63 2.64 2.64 0 0 0 2.64 2.63 2.63 2.63 0 0 0 2.64-2.63c0-1.45-1.18-2.63-2.65-2.63m6.64-.4a3.04 3.04 0 0 0-3.05 3.03 3.04 3.04 0 0 0 3.04 3.03 3.04 3.04 0 0 0 3.04-3.03 3.04 3.04 0 0 0-3.04-3.03M59.44 114a2.42 2.42 0 0 0-2.44 2.4 2.42 2.42 0 0 0 2.43 2.42 2.42 2.42 0 0 0 2.42-2.4 2.42 2.42 0 0 0-2.42-2.42m11.84 20.93c-.37 0-.67.3-.67.67 0 .36.3.66.67.66a.66.66 0 0 0 0-1.33m-2.3-1.38a1 1 0 1 0 0 1.98c.56 0 1-.44 1-1a1 1 0 0 0-1-.98m-1.67-2.95c-.7 0-1.28.58-1.28 1.28 0 .7.58 1.28 1.3 1.28.7 0 1.27-.57 1.27-1.28s-.58-1.28-1.3-1.28m-1 2.74a.73.73 0 1 0 0 1.46.73.73 0 0 0 0-1.46m-4.36-2.55a.8.8 0 0 0 0 1.58.8.8 0 0 0 .8-.8.8.8 0 0 0-.8-.8m2.4.4c-.6 0-1.07.47-1.07 1.06 0 .58.48 1.06 1.07 1.06a1.06 1.06 0 1 0 0-2.12m-2.06-3.22c-.64 0-1.16.52-1.16 1.16 0 .64.52 1.16 1.16 1.16.65 0 1.17-.52 1.17-1.16 0-.64-.52-1.16-1.17-1.16m-2.8.12c-.58 0-1.07.48-1.07 1.08a1.08 1.08 0 0 0 1.1 1.07 1.08 1.08 0 1 0 0-2.15m-1.9-2.37a1.2 1.2 0 1 0 1.18 1.2c0-.66-.53-1.2-1.2-1.2M56 122.44c-.83 0-1.5.67-1.5 1.5s.67 1.5 1.5 1.5c.84 0 1.5-.67 1.5-1.5s-.66-1.5-1.5-1.5m4.47 1.83c-.85 0-1.53.68-1.53 1.53 0 .83.68 1.52 1.53 1.52s1.53-.7 1.53-1.53c0-.86-.68-1.54-1.53-1.54m5.1 2.84a1.6 1.6 0 1 0 0 3.2 1.6 1.6 0 0 0 1.6-1.6c0-.88-.7-1.6-1.6-1.6m-1.25-4.45a2.03 2.03 0 0 0-2.03 2.02c0 1.1.9 2 2.02 2a2.02 2.02 0 1 0 0-4.02m-.1-5.5a2.45 2.45 0 0 0-2.44 2.45 2.45 2.45 0 0 0 2.45 2.45 2.45 2.45 0 0 0 2.46-2.45 2.45 2.45 0 0 0-2.47-2.44m-3.6-9.72a2.9 2.9 0 0 0-2.9 2.88c0 1.6 1.3 2.9 2.9 2.9a2.9 2.9 0 0 0 2.9-2.9 2.9 2.9 0 0 0-2.9-2.88m5.62 3.47a2.96 2.96 0 0 0-2.96 2.96 2.96 2.96 0 0 0 2.95 2.95 2.96 2.96 0 0 0 2.97-2.94 2.96 2.96 0 0 0-2.97-2.95m3.4-6.68c-1.84 0-3.33 1.48-3.33 3.3 0 1.84 1.5 3.3 3.32 3.3a3.3 3.3 0 0 0 3.32-3.3 3.3 3.3 0 0 0-3.32-3.3"/><path fill="#aa1a27" fill-rule="evenodd" stroke="#fff" stroke-width="1.2" d="M630.57 433.86c.36 0 .65.3.65.67v5.92a.65.65 0 0 1-.65.67h-28.54a.65.65 0 0 1-.67-.67v-5.92c0-.38.3-.67.67-.67zm0 0" transform="matrix(4.827 0 0 -4.804 -2899.694 2141.986)"/><path fill="#aa1a27" fill-rule="evenodd" d="M66.64 57.85h77.23c1.72 0 3.1-1.38 3.1-3.2V26.2c0-1.82-1.38-3.2-3.1-3.2H66.64"/><path fill="#0e2d6d" d="M66.64 23H6.1c-1.8 0-3.2 1.38-3.2 3.2v28.46c0 1.8 1.4 3.2 3.2 3.2h60.54"/><path fill="#93acd3" fill-rule="evenodd" d="M66.64 23.74H5.47s1.28 7.14 9.75 13.22c0 0 4.28 3.2 7.07 3.2h44.34zm0 0"/><path fill="#eb9098" fill-rule="evenodd" d="M66.64 23.74h77.88s-1.4 7.14-9.75 13.22c0 0-4.3 3.2-7.18 3.2H66.63zm0 0"/><path fill="#fff" d="M45 55.4c.43.1 1.28.43 2.35.43 1.83.1 2.8-.64 3.54-2.24l9.74-21.76c-.43-.2-1.3-.42-2.04-.42-1.28 0-2.9.2-4.07 2.77l-3.1 7.45-6.22-10.02c-.42-.2-1.4-.32-2.03-.32-2.25 0-3.43.86-4.7 2.14l-6.12 6.6 4.82 7.58c.97 1.4 2.15 2.14 4.07 2.14 1.18 0 2.25-.32 2.68-.54l-5.68-8.74 4.18-4.37 6.75 10.67zm-12.86-8.3c0 1.6-.54 2.55-3.75 2.55H27.3V28.32c0-1.6.53-3.2 3.64-3.2.43 0 .86 0 1.18.1zM25.7 44c0 2.98-1.92 5.1-5.88 5.54-2.9.32-7.07-.1-9-.32-.1-.32-.2-.74-.2-1.06 0-2.56 1.5-3.2 2.77-3.2 1.4 0 3.53.32 5.24.32 1.72 0 2.25-.64 2.25-1.28s-.76-1.07-2.15-1.28L15 41.97c-3.1-.64-4.82-2.77-4.82-5.12 0-2.77 1.93-5.1 5.9-5.54 2.88-.3 6.53.12 8.46.33.1.32.2.64.2.96 0 2.65-1.4 3.2-2.67 3.2-1.07 0-2.68-.23-4.5-.23-1.82 0-2.57.54-2.57 1.07 0 .75.75.96 1.82 1.17l3.64.65c3.75.85 5.25 2.88 5.25 5.55zm58.5 8.3h-6.42c-.75 0-1.3 0-1.82-.2-.43-.1-.75-.32-.97-.53a2.26 2.26 0 0 1-.54-.85c0-.32-.1-.75-.1-1.07v-17.9c0-.44.1-.76.1-1.2.1-.3.32-.52.53-.84.2-.2.53-.4.96-.52.53-.1 1.07-.2 1.82-.2h6.2c1.83 0 3.44.1 4.62.52 1.18.32 2.35.64 3 1.17.75.53 1.4 1.28 1.7 1.92.33.74.55 1.48.55 2.33 0 1.18-.33 2.14-1.08 3-.75.84-1.7 1.6-3 1.9l-.53.23.64.2c1.82.54 3.1 1.3 3.86 2.14.75.96 1.18 2.02 1.18 3.1 0 2.23-.97 3.83-2.68 5-1.82 1.28-4.5 1.8-8.03 1.8m-4.07-4.14h3.43c1.72 0 2.8-.22 3.64-.64.86-.43 1.18-1.18 1.18-2.35 0-.32 0-.64-.2-.96-.12-.3-.33-.63-.65-.95a3.47 3.47 0 0 0-1.4-.53c-.64-.1-1.4-.32-2.35-.32h-3.65zm0-9.4h3.43c.86 0 1.5-.1 2.04-.2.53-.1.96-.32 1.28-.64.32-.2.54-.53.64-.85.1-.32.22-.64.22-.96 0-.95-.32-1.6-.97-2.02-.75-.42-1.82-.64-3.32-.64h-3.32zm23.46 8.65v-4.26h8.24c1.93 0 3-.74 3-3.3 0-.54-.1-1.17-.2-1.5h-11.05v-4.58h8.46c1.92 0 3.1-.64 3.1-3.2 0-.53-.1-1.17-.2-1.5H102.2c-3.64 0-4.28 1.82-4.28 3.74v19.4h14.67c1.92 0 3-.63 3-3.2 0-.63-.12-1.16-.22-1.6zm27.63-13.64h4.6c1.5 0 3-.64 3-3.62 0-.32 0-.75-.1-1.18h-17.78c-1.5 0-3.1.64-3.1 3.73 0 .3.1.74.2 1.06h7.5V52.3c.43 0 .97.12 1.4.12 3.53 0 4.28-1.07 4.28-2.77zm0 0"/></svg>