<svg xmlns="http://www.w3.org/2000/svg" width="200" height="352" viewBox="0 0 150 264"><defs><linearGradient id="a" gradientUnits="userSpaceOnUse" x1="371.894" y1="2114.733" x2="1334.953" y2="2670.756" gradientTransform="matrix(.05905 0 0 .05902 1.282 1.282)"><stop offset="0" stop-color="#147ad1"/><stop offset="1" stop-color="#002d71"/></linearGradient><linearGradient id="b" gradientUnits="userSpaceOnUse" x1="2095.94" y1="2087.896" x2="1191.271" y2="2721.352" gradientTransform="matrix(.05905 0 0 .05902 1.282 1.282)"><stop offset="0" stop-color="#147ad1"/><stop offset="1" stop-color="#002d71"/></linearGradient><linearGradient id="c" gradientUnits="userSpaceOnUse" x1="1055.973" y1="2523.601" x2="1614.481" y2="2201.147" gradientTransform="matrix(.05905 0 0 .05902 1.282 1.282)"><stop offset="0" stop-color="#147ad1"/><stop offset="1" stop-color="#002d71"/></linearGradient><linearGradient id="d" gradientUnits="userSpaceOnUse" x1="1431.259" y1="1969.197" x2="950.299" y2="1632.425" gradientTransform="matrix(.05905 0 0 .05902 1.282 1.282)"><stop offset="0" stop-color="#147ad1"/><stop offset="1" stop-color="#002d71"/></linearGradient><linearGradient id="e" gradientUnits="userSpaceOnUse" x1="1149.213" y1="1610.673" x2="1842.065" y2="2303.524" gradientTransform="matrix(.05905 0 0 .05902 1.282 1.282)"><stop offset="0" stop-color="#147ad1"/><stop offset="1" stop-color="#002d71"/></linearGradient><linearGradient id="f" gradientUnits="userSpaceOnUse" x1="1636.403" y1="2248.89" x2="1115.73" y2="2613.469" gradientTransform="matrix(.05905 0 0 .05902 1.282 1.282)"><stop offset="0" stop-color="#147ad1"/><stop offset="1" stop-color="#002d71"/></linearGradient></defs><path d="M117.004 263.008H32.996c-17.52 0-31.715-14.188-31.715-31.695V32.983c0-17.511 14.196-31.703 31.715-31.703h84.008c17.512 0 31.715 14.192 31.715 31.703v198.328c-.008 17.508-14.203 31.696-31.715 31.696zm0 0" fill="#fff"/><path d="M1.281 206.941v24.371c0 17.508 14.196 31.704 31.715 31.704h84.008c17.512 0 31.715-14.192 31.715-31.704v-24.37zm0 0" fill="#024494"/><path d="M128.543 218.586h-1.98c-2.532 0-2.7.277-2.895.726l-3.918 9.403c-1.305 3.117-2.645 6.48-3.172 8.203-.473-1.75-1.336-4.059-3.172-8.367l-3.918-9.235c-.25-.554-1.222-.722-3.367-.722h-2.226c-2.172 0-2.618.191-2.618.636v28.344c0 .531.446.637 2.7.637h1.222c2.227 0 2.84-.113 2.84-.637V230.77h.168s.191.777.531 1.5l4.504 10.539c.195.472.442.668 2.531.668h1.336c2.145 0 2.282-.165 2.473-.668l4.117-10.153c.39-.941.668-1.886.668-1.886h.164v16.82c0 .531.418.637 2.754.637h1.195c2.176 0 2.813-.11 2.813-.637v-28.367c.059-.442-.578-.637-2.75-.637" fill="#ff1f11"/><path d="M95.77 219.223c0-.442-.614-.637-2.81-.637h-1.253c-2.277 0-2.7.195-2.7.637v28.343c0 .532.391.637 2.7.637h1.281c2.172 0 2.813-.11 2.813-.637zm0 0" fill="#fff"/><path d="M83.719 218.586c.586 0 .726.082.726 2.172v1.949c0 2-.168 2.254-.726 2.254h-6.707v22.613c0 .531-.64.637-2.895.637h-1.199c-2.277 0-2.7-.113-2.7-.637v-22.613h-6.706c-.555 0-.727-.164-.727-2.254v-1.95c0-2.171.113-2.171.7-2.171zm0 0" fill="#00be1b"/><path d="M33.64 241.867H21.177c-.473 0-.89.192-1.2.5a1.685 1.685 0 0 0-.503 1.2v2.921c0 .473.195.89.504 1.196.308.308.726.504 1.199.504H33.64zm20.786.5a1.682 1.682 0 0 0-1.2-.5H40.763v6.313h12.465c.472 0 .914-.196 1.199-.5.304-.309.5-.727.5-1.2v-2.921c0-.473-.196-.891-.5-1.192m0-11.629a1.698 1.698 0 0 0-1.2-.5H40.763v6.34h12.465c.472 0 .914-.195 1.199-.504.304-.304.5-.726.5-1.199v-2.918c0-.496-.196-.91-.5-1.219m-20.785-.5H21.176c-.473 0-.89.196-1.2.5a1.685 1.685 0 0 0-.503 1.2v2.921c0 .473.195.891.504 1.2.308.304.726.5 1.199.5H33.64zm19.586-5.312H21.176c-.473 0-.89-.196-1.2-.504a1.67 1.67 0 0 1-.503-1.195v-2.922c0-.473.195-.89.504-1.2.308-.308.726-.5 1.199-.5h32.05c.473 0 .915.192 1.2.5.304.31.5.727.5 1.2v2.922c0 .472-.196.89-.5 1.195a1.685 1.685 0 0 1-1.2.504" fill="#e40d2c"/><path d="M19.574 132.453L75.328 167.2l-21.965-34.746zm0 0" fill-rule="evenodd" fill="url(#a)"/><path d="M96.809 132.453L75.329 167.2l55.273-34.746zm0 0" fill-rule="evenodd" fill="url(#b)"/><path d="M53.363 132.453L75.328 167.2v-34.746zm0 0" fill-rule="evenodd" fill="url(#c)"/><path d="M75.086 72.375l-21.723 60.078h21.965zm0 0" fill-rule="evenodd" fill="url(#d)"/><path d="M75.086 72.375l.242 60.078h21.48zm0 0" fill-rule="evenodd" fill="url(#e)"/><path d="M75.328 132.453V167.2l21.48-34.746zm0 0" fill-rule="evenodd" fill="url(#f)"/><path d="M130.602 132.453L86.43 29.672H63.5L19.574 132.453h33.79l21.722-60.078 10.137 27.992H75.086l-5.793 17.371H91.5l5.309 14.715zm0 0" fill="#008fd7"/><path d="M26.523 197.297c-1.664 0-3.277-.29-4.835-.863-1.56-.57-2.782-1.293-3.665-2.16-.171-.172-.183-.356-.035-.547l2.465-2.825c.133-.168.29-.183.485-.027 1.902 1.516 3.832 2.273 5.777 2.273 1.12 0 2.008-.238 2.644-.714.637-.48.957-1.118.957-1.914 0-.692-.253-1.235-.761-1.622-.508-.39-1.395-.675-2.645-.843l-1.172-.16c-4.652-.649-6.976-2.86-6.976-6.618 0-2.03.707-3.664 2.125-4.898 1.418-1.234 3.312-1.848 5.695-1.848 3.008 0 5.512.766 7.5 2.301.195.129.219.29.066.484l-1.98 2.95c-.129.172-.281.207-.453.097-1.73-1.12-3.442-1.691-5.125-1.691-.95 0-1.684.226-2.192.668-.507.445-.761 1.023-.761 1.734 0 .653.265 1.176.797 1.578.53.403 1.414.684 2.644.864l1.172.156c4.629.629 6.941 2.86 6.941 6.683 0 2.079-.75 3.754-2.254 5.028-1.503 1.27-3.644 1.914-6.414 1.914zm11.946-.684v-21.418c0-.215.11-.324.324-.324h14.148c.22 0 .325.11.325.324v3.473c0 .219-.106.324-.325.324h-9.504c-.132 0-.195.067-.195.196v4.378c0 .13.063.196.196.196h7.917c.22 0 .325.105.325.324v3.441c0 .22-.106.325-.325.325h-7.917c-.133 0-.196.066-.196.195v4.574c0 .129.063.195.196.195h9.511c.219 0 .324.106.324.325v3.472c0 .215-.105.325-.324.325H38.793c-.215 0-.324-.11-.324-.325zm35.68.325h-4.614c-.238 0-.402-.11-.484-.325l-3.797-8.082H62.3c-.13 0-.196.067-.196.196v7.886c0 .215-.105.325-.324.325h-4.12c-.22 0-.325-.11-.325-.325v-21.418c0-.215.105-.324.324-.324h8.797c2.25 0 4.063.633 5.441 1.902 1.375 1.262 2.059 2.915 2.059 4.946 0 1.406-.348 2.644-1.039 3.715-.691 1.066-1.652 1.875-2.887 2.418l4.352 8.695a.274.274 0 0 1 0 .258.254.254 0 0 1-.235.132zm-7.958-12.461c.91 0 1.637-.25 2.176-.747.543-.492.809-1.167.809-2.011 0-.82-.274-1.48-.809-1.977-.543-.496-1.265-.742-2.176-.742h-3.894c-.133 0-.195.063-.195.191v5.094c0 .133.062.195.195.195h3.894zm11.575 12.136v-21.418c0-.215.105-.324.324-.324h4.12c.22 0 .33.11.33.324v21.418c0 .215-.11.325-.33.325h-4.12c-.219 0-.324-.11-.324-.325zm9.5 0v-21.418c0-.215.109-.324.324-.324h14.148c.219 0 .325.11.325.324v3.473c0 .219-.106.324-.325.324h-9.511c-.13 0-.196.067-.196.196v4.378c0 .13.067.196.196.196h7.918c.218 0 .324.105.324.324v3.441c0 .22-.106.325-.324.325h-7.918c-.13 0-.196.066-.196.195v4.574c0 .129.067.195.196.195h9.511c.219 0 .325.106.325.325v3.472c0 .215-.106.325-.325.325H87.59c-.211 0-.324-.11-.324-.325zm24.988 0l7.594-21.418c.066-.215.207-.324.422-.324h4.09c.218 0 .355.11.421.324l7.461 21.418c.067.215-.012.325-.222.325h-4.223c-.219 0-.356-.11-.418-.325l-1.266-3.863h-7.722l-1.235 3.863c-.066.215-.207.325-.418.325h-4.254c-.222 0-.293-.11-.23-.325zm7.465-7.918h5.097l-2.5-7.718h-.097zm0 0" fill="#002d71"/></svg>