<svg xmlns="http://www.w3.org/2000/svg" width="200" height="62pt" viewBox="0 0 150 62"><path d="M115.309 41.453l.41-1.719h3.34v12.957c0 2.524-.72 4.301-2.414 5.618-1.286.96-3.032 1.668-5.137 1.668-2.88 0-4.934-.961-6.574-2.524l2.105-2.883c1.027.961 2.414 1.82 4.211 1.82 2.824 0 4.059-1.367 4.059-3.39v-.96c-1.13 1.163-2.465 1.616-3.954 1.616-3.906 0-6.988-3.136-6.988-7.133 0-3.949 3.188-6.984 7.09-6.984 1.59 0 3.027.758 3.852 1.922m-3.391 1.469c-2 0-3.594 1.515-3.594 3.593 0 1.973 1.594 3.54 3.594 3.54a3.598 3.598 0 0 0 2.55-1.028 3.507 3.507 0 0 0 1.048-2.512c0-2.078-1.594-3.593-3.598-3.593M90.191 20.406c-1.593 0-2.93.914-3.238 2.38h6.371c-.308-1.419-1.59-2.38-3.133-2.38m.207 10.985c-4.265 0-7.39-2.883-7.39-7.086 0-3.797 2.824-7.188 7.293-7.188 3.34 0 6.781 2.48 6.781 7.086 0 .36 0 .809-.102 1.317H86.91c.367 1.515 1.746 2.53 3.442 2.53 1.543 0 2.722-.558 3.699-1.57l2.312 2.329c-1.488 1.671-3.644 2.582-5.957 2.582m42.684-10.985c-1.59 0-2.926.91-3.235 2.38h6.368c-.305-1.419-1.59-2.38-3.133-2.38m.207 10.985c-4.262 0-7.39-2.887-7.39-7.086 0-3.797 2.823-7.188 7.296-7.188 3.336 0 6.777 2.48 6.777 7.086 0 .36 0 .809-.101 1.313h-10.066c.359 1.52 1.746 2.535 3.44 2.535 1.54 0 2.724-.559 3.7-1.57l2.309 2.328c-1.489 1.668-3.645 2.578-5.957 2.578m9.597 11.289c-1.593 0-2.925.91-3.234 2.379h6.367c-.308-1.418-1.59-2.38-3.133-2.38m.203 10.981c-4.261 0-7.386-2.883-7.386-7.086 0-3.797 2.824-7.187 7.293-7.187 3.34 0 6.781 2.48 6.781 7.086 0 .36 0 .812-.106 1.316h-10.066c.367 1.52 1.746 2.524 3.441 2.524 1.543 0 2.723-.559 3.7-1.57l2.312 2.327c-1.492 1.672-3.648 2.582-5.96 2.582m-63.18-10.98c-1.594 0-2.93.91-3.239 2.379h6.371c-.308-1.418-1.593-2.379-3.132-2.379m.203 10.98c-4.262 0-7.39-2.882-7.39-7.086 0-3.796 2.823-7.187 7.292-7.187 3.34 0 6.781 2.48 6.781 7.086 0 .36 0 .809-.101 1.316h-10.07c.363 1.52 1.757 2.524 3.445 2.524 1.539 0 2.722-.559 3.699-1.57l2.309 2.328c-1.489 1.671-3.645 2.582-5.957 2.582m-21.114-.36V33.188h4.059v16.304h8.836v3.797H59.03zm15.461-22.27V17.474h3.29l.41 1.972c.617-1.265 1.847-2.125 3.496-2.125.363 0 .726.051 1.078.145v3.594a6.004 6.004 0 0 0-1.336-.145c-1.852 0-3.133 1.113-3.133 3.29v6.831h-3.805zm66.985 0V17.474h3.289l.41 1.972c.617-1.265 1.847-2.125 3.492-2.125.367 0 .73.051 1.078.153v3.59a6.186 6.186 0 0 0-1.336-.141c-1.847 0-3.129 1.113-3.129 3.289v6.832h-3.804zm-26.559-7.995c0-1.47-.82-2.38-2.106-2.38-1.488 0-2.257.91-2.257 2.43v7.946h-3.805v-7.973c0-1.469-.82-2.379-2.105-2.379-1.489 0-2.266.91-2.266 2.43v7.941h-3.817V17.473h3.336l.415 1.77s.82-2.126 3.39-2.126c1.594 0 2.926.656 3.852 2.02l.101.144.102-.144c1.34-1.875 2.98-2.02 4.008-2.02 2.93 0 4.933 2.176 4.933 5.262v8.656h-3.8l-.004-7.996zm7.656-7.391c-1.336 0-2.363-1.012-2.363-2.277 0-1.317 1.027-2.328 2.363-2.328s2.364 1.011 2.364 2.328c0 1.265-1.028 2.277-2.364 2.277m-1.953 1.824h3.8v13.563h-3.8zM95.707 42.906c-2.047 0-3.594 1.516-3.594 3.594 0 1.973 1.54 3.543 3.594 3.543 2.004 0 3.543-1.57 3.543-3.543 0-2.078-1.54-3.594-3.543-3.594m-.77 10.727c-3.648 0-6.832-3.29-6.832-7.137 0-3.793 3.184-6.984 6.832-6.984 2.047 0 3.442.71 4.262 1.976l.414-1.773h3.336v13.562h-3.336L99.2 51.56c-.82 1.214-2.363 2.074-4.261 2.074m32.722 0c-3.031 0-6.73-1.617-6.73-6.68v-7.23h3.8v6.992c0 2.328 1.079 3.34 2.93 3.34 1.692 0 2.926-1.16 2.926-3.34V39.73h3.8v7.239c0 5.062-3.75 6.68-6.726 6.68M63.09 20.452h2.363c2.05 0 3.543-1.113 3.543-3.14 0-2.024-1.488-3.086-3.543-3.086H63.09zm-4.078 10.582V10.437h6.625c4.316 0 7.55 2.524 7.55 6.883 0 4.403-3.183 6.985-7.55 6.985h-2.563v6.73zm-14.535-2.598c-1.38 1.114-2.547 1.735-2.547 1.735l.015 3.531c.985 1.055 1.957 1.93 2.684 3.527 1.383-2.39 1.117-5.91-.145-8.792m-1.129 11.55s-.28-1.453-1.48-2.812l-2.734.07s-3.684 3.047-5.93 3.117l1.863 3.371c1.235-.257 3.414-1.195 4.29-2.18a12.147 12.147 0 0 0 .468 3.915c1.23-.684 2.926-2.543 3.523-5.477m-3.523-6.375l-.004-3.515s-1.633-.504-3.375-1.801c-3.504.508-7.742 3.894-7.742 3.894l3 5.43c2.754.371 6.812-2.977 8.125-4.008m9.336 14.645l-2.254-2.399c-.645 6.489-3.945 11.985-10.012 15.825l-.926-3.5c-5.148 3.578-13.988 5.894-21.578 1.769.953-4.625 1.782-9.309-.015-14.914-4.203 6.258-7.922 8.707-7.922 8.707-2.84-4.582-2.586-13.777-1.738-16.477L0 38.672c0-3.09 2.313-9.649 5.668-13.328l-2.957-.453c2.008-3.942 5.004-7.34 8.664-9.891l.008-.004c-1.102 1.672-1.117 5.793 2.105 7.356-1.367-2.309-1.531-5.157-.105-6.633 1.43-1.489 3.836-.98 5.37.176-.456-1.286-1.796-2.907-3.8-3.016h-.004c3.79-1.875 8.09-2.93 12.64-2.93.845 0 1.688.035 2.528.11 1.324.507 3.266 2.3 4.172 3.418 0 0 .063-1.317-.695-2.903 4.926 1.153 7.281 3.082 8.265 4.012.2 2.047.84 3.277 1.68 5.223-1.598-1.72-5.61-4.493-7.523-5.157 0 0-.157 1.774-.817 2.625-3.816-2.644-5.687-3.308-5.687-3.308-4.188.574-6.883 2.129-8.344 3.347l1.273 1.047c-2.523.746-4.171 2.828-4.171 2.828.02.04 2.257.344 2.257.344s-.23 2.527 3.059 4.11c2.82 1.355 6.879-.325 10.687 1.144-2.507-2.781-4.246-4.027-4.246-4.027s-.996-.2-1.695-.192c-.875.004-2.184.168-3.617-.367-.684-.258-1.485-.71-2.113-1.09 0 0 1.761-1.738 4.335-2.125 0 0 2.325.63 4.165 1.938 1.218-1.145 2.496-1.11 2.496-1.11s-1.266 1.137-.883 2.512c1.828 1.57 3.828 3.824 3.828 3.824 2.031-1.066 6.441-.824 7.348.188-1.149-1.434-2.801-2.63-4.082-3.649-.157-.535-1.555-2.406-1.79-2.578 0 0 1.329.39 2.516 1.414.34-.465.977-.941 1.848-1.148.89.719 1.05 1.824 1.027 2.008-.402.46-.8.652-.8.652l2.152 2.238.215-1.605c4.957 6.805 7.66 14.68 4.187 24.582M10.02 5.188c2.859 1.261 4.695 2.847 5.027 3.09-.149-.708-.715-4.126-1.04-6.247l6.806 4.528L23.128.012l3.8 5.87C27.606 5.2 31.485 1.052 32.493 0l.453 6.316c.192-.253 1.68-2.257 4.168-4.097-1.078 2.043-1.593 4.86-1.828 7.125a29.946 29.946 0 0 0-7.7-1.008c-5.12 0-9.917 1.289-14.07 3.559-.753-2.188-1.937-4.91-3.511-6.707" fill="#3d195b"/></svg>